<?xml version="1.0" encoding="UTF-8" standalone="no"?>
<svg
   xmlns:dc="http://purl.org/dc/elements/1.1/"
   xmlns:cc="http://creativecommons.org/ns#"
   xmlns:rdf="http://www.w3.org/1999/02/22-rdf-syntax-ns#"
   xmlns:svg="http://www.w3.org/2000/svg"
   xmlns="http://www.w3.org/2000/svg"
   id="svg16"
   version="1.1"
   height="155.5"
   width="263.5">
  <metadata
     id="metadata22">
    <rdf:RDF>
      <cc:Work
         rdf:about="">
        <dc:format>image/svg+xml</dc:format>
        <dc:type
           rdf:resource="http://purl.org/dc/dcmitype/StillImage" />
      </cc:Work>
    </rdf:RDF>
  </metadata>
  <defs
     id="defs20" />
  <g
     id="g5">
    <title
       id="title2">background</title>
    <path
       id="canvas_background"
       d="M -1,-1 H 581 V 401 H -1 Z"
       style="fill:none" />
  </g>
  <g
     id="g14">
    <title
       id="title7">Layer 1</title>
    <path
       id="svg_1"
       d="M 0,0 H 263.5 V 155.5 H 0 Z"
       style="fill:#ffffff" />
    <g
       id="center_3_"
       style="font-weight:700;font-size:10px;font-family:Montserrat;text-anchor:middle"
       transform="matrix(1,0.00226,-0.00226,1,102.3188,46.8605)"
       aria-label="Anchit Singh">
      <path
         id="path26"
         style="font-weight:700;font-size:10px;font-family:Montserrat;text-anchor:middle"
         d="m 1.7671586,-0.06565841 -0.48,-1.23999999 h -3.03 l -0.49,1.23999999 h -1.88 l 3.01,-7.00999999 h 1.87999998 l 2.94000002,7.00999999 z m -2.96,-2.63999999 h 1.93999998 l -0.96,-2.5 z" />
      <path
         id="path28"
         style="font-weight:700;font-size:10px;font-family:Montserrat;text-anchor:middle"
         d="m 7.9215336,-5.5456584 q 0.89,0 1.42,0.56 0.54,0.56 0.54,1.51 v 3.40999999 h -1.77 V -2.9656584 q 0,-0.46 -0.25,-0.72 -0.25,-0.27 -0.67,-0.27 -0.44,0.01 -0.73,0.29 -0.28,0.28 -0.33,0.74 v 2.85999999 h -1.78 V -5.4756584 h 1.78 v 0.88 q 0.29,-0.47 0.74,-0.71 0.46,-0.24 1.05,-0.24 z" />
      <path
         id="path30"
         style="font-weight:700;font-size:10px;font-family:Montserrat;text-anchor:middle"
         d="m 14.579815,-3.5056584 q -0.38,-0.56 -1.06,-0.56 -0.48,0 -0.78,0.37 -0.3,0.36 -0.3,0.94 0,0.59 0.3,0.95 0.3,0.36 0.78,0.36 0.74,0 1.06,-0.61 l 1.31,0.75 q -0.32,0.61999999 -0.96,0.95999999 -0.64,0.34 -1.5,0.34 -0.83,0 -1.46,-0.34 -0.63,-0.34 -0.98,-0.95999999 -0.34,-0.62 -0.34,-1.44 0,-0.83 0.35,-1.46 0.35,-0.64 0.98,-0.98 0.64,-0.35 1.47,-0.35 0.81,0 1.44,0.34 0.63,0.33 0.98,0.94 z" />
      <path
         id="path32"
         style="font-weight:700;font-size:10px;font-family:Montserrat;text-anchor:middle"
         d="m 20.334815,-5.5456584 q 0.9,0 1.43,0.56 0.54,0.56 0.54,1.51 v 3.40999999 h -1.78 V -2.9656584 q 0,-0.46 -0.25,-0.72 -0.24,-0.27 -0.67,-0.27 -0.49,0.01 -0.78,0.35 -0.28,0.33 -0.28,0.87 v 2.66999999 h -1.78 V -7.4856584 h 1.78 v 2.89 q 0.29,-0.47 0.74,-0.71 0.46,-0.24 1.05,-0.24 z" />
      <path
         id="path34"
         style="font-weight:700;font-size:10px;font-family:Montserrat;text-anchor:middle"
         d="m 23.51169,-5.4756584 h 1.77 v 5.40999999 h -1.77 z m 0.87,-2.49 q 0.41,0 0.67,0.27 0.27,0.26 0.27,0.68 0,0.41 -0.27,0.68 -0.26,0.27 -0.67,0.27 -0.41,0 -0.68,-0.27 -0.26,-0.27 -0.26,-0.68 0,-0.42 0.26,-0.68 0.27,-0.27 0.68,-0.27 z" />
      <path
         id="path36"
         style="font-weight:700;font-size:10px;font-family:Montserrat;text-anchor:middle"
         d="m 30.15669,-0.34565841 q -0.3,0.17 -0.69,0.27 -0.39,0.09 -0.79,0.09 -0.8,0 -1.3,-0.46 -0.49,-0.46 -0.49,-1.26999999 v -2.32 h -0.75 v -1.18 h 0.75 v -1.5 h 1.77 v 1.5 h 1.4 v 1.18 h -1.4 v 2.04 q 0,0.57 0.47,0.57 0.29,0 0.69,-0.18 z" />
      <path
         id="path38"
         style="font-weight:700;font-size:10px;font-family:Montserrat;text-anchor:middle"
         d="m 38.068252,-4.9656584 q -0.56,-0.33 -1.2,-0.54 -0.63,-0.21 -1.06,-0.21 -0.34,0 -0.54,0.13 -0.19,0.12 -0.19,0.36 0,0.23 0.17,0.39 0.17,0.15 0.42,0.25 0.25,0.09 0.74,0.24 0.73,0.21 1.2,0.42 0.48,0.21 0.82,0.65 0.34,0.43 0.34,1.13 0,0.7 -0.37,1.19999999 -0.37,0.49 -1.02,0.74 -0.64,0.25 -1.43,0.25 -0.87,0 -1.74,-0.3 -0.86,-0.31 -1.49,-0.83999999 l 0.71,-1.43 q 0.53,0.47 1.25,0.77 0.73,0.3 1.29,0.3 0.41,0 0.64,-0.15 0.24,-0.15 0.24,-0.44 0,-0.24 -0.18,-0.4 -0.17,-0.16 -0.44,-0.25 -0.26,-0.1 -0.74,-0.23 -0.72,-0.2 -1.19,-0.4 -0.47,-0.21 -0.81,-0.62 -0.33,-0.42 -0.33,-1.11 0,-0.65 0.34,-1.14 0.35,-0.49 0.98,-0.75 0.64,-0.27 1.48,-0.27 0.76,0 1.5,0.22 0.74,0.21 1.3,0.57 z" />
      <path
         id="path40"
         style="font-weight:700;font-size:10px;font-family:Montserrat;text-anchor:middle"
         d="m 39.703096,-5.4756584 h 1.77 v 5.40999999 h -1.77 z m 0.87,-2.49 q 0.41,0 0.67,0.27 0.27,0.26 0.27,0.68 0,0.41 -0.27,0.68 -0.26,0.27 -0.67,0.27 -0.41,0 -0.68,-0.27 -0.26,-0.27 -0.26,-0.68 0,-0.42 0.26,-0.68 0.27,-0.27 0.68,-0.27 z" />
      <path
         id="path42"
         style="font-weight:700;font-size:10px;font-family:Montserrat;text-anchor:middle"
         d="m 46.398096,-5.5456584 q 0.89,0 1.42,0.56 0.54,0.56 0.54,1.51 v 3.40999999 h -1.77 V -2.9656584 q 0,-0.46 -0.25,-0.72 -0.25,-0.27 -0.67,-0.27 -0.44,0.01 -0.73,0.29 -0.28,0.28 -0.33,0.74 v 2.85999999 h -1.78 V -5.4756584 h 1.78 v 0.88 q 0.29,-0.47 0.74,-0.71 0.46,-0.24 1.05,-0.24 z" />
      <path
         id="path44"
         style="font-weight:700;font-size:10px;font-family:Montserrat;text-anchor:middle"
         d="m 54.746377,-5.4756584 v 4.92999999 q 0,0.75 -0.37,1.31 -0.37,0.57000001 -1.04,0.87000001 -0.66,0.31 -1.53,0.31 -0.68,0 -1.31,-0.19 -0.63,-0.19 -1.11,-0.51 l 0.62,-1.23000001 q 0.37,0.25 0.8,0.39 0.43,0.14 0.87,0.14 0.6,0 0.95,-0.28 0.35,-0.28 0.35,-0.76 V -1.0756584 q -0.54,0.70999999 -1.54,0.70999999 -0.67,0 -1.2,-0.32 -0.52,-0.32999999 -0.82,-0.91999999 -0.29,-0.6 -0.29,-1.37 0,-0.76 0.28,-1.34 0.29,-0.58 0.81,-0.9 0.52,-0.32 1.18,-0.32 0.5,0 0.9,0.19 0.41,0.18 0.68,0.53 v -0.66 z m -2.86,3.81 q 0.49,0 0.79,-0.35 0.3,-0.35 0.3,-0.91 0,-0.57 -0.3,-0.92 -0.3,-0.35 -0.79,-0.35 -0.49,0 -0.8,0.36 -0.3,0.35 -0.3,0.91 0,0.56 0.3,0.91 0.31,0.35 0.8,0.35 z" />
      <path
         id="path46"
         style="font-weight:700;font-size:10px;font-family:Montserrat;text-anchor:middle"
         d="m 59.670752,-5.5456584 q 0.9,0 1.43,0.56 0.54,0.56 0.54,1.51 v 3.40999999 h -1.78 V -2.9656584 q 0,-0.46 -0.25,-0.72 -0.24,-0.27 -0.67,-0.27 -0.49,0.01 -0.78,0.35 -0.28,0.33 -0.28,0.87 v 2.66999999 h -1.78 V -7.4856584 h 1.78 v 2.89 q 0.29,-0.47 0.74,-0.71 0.46,-0.24 1.05,-0.24 z" />
    </g>
    <g
       id="center_2_"
       style="font-weight:400;font-size:10px;font-family:Montserrat;text-anchor:middle"
       transform="matrix(1,0.00226,-0.00226,1,109.8085,74.3774)"
       aria-label="91418 00009">
      <path
         id="path49"
         style="font-weight:400;font-size:10px;font-family:Montserrat;text-anchor:middle"
         d="m -7.4675356,-1.2520963 q 0.34,0.21 0.75,0.33000003 0.42,0.11 0.83,0.11 1,0 1.53,-0.70000003 0.54,-0.71 0.54,-1.93 0,-0.19 -0.01,-0.29 -0.25,0.58 -0.77,0.88 -0.51,0.3 -1.24,0.3 -1.04,0 -1.64,-0.6 -0.6,-0.6 -0.6,-1.62 0,-0.71 0.3,-1.23 0.3,-0.53 0.84,-0.81 0.55,-0.28 1.27,-0.28 0.86,0 1.49,0.4 0.63,0.4 0.96,1.16 0.34,0.76 0.34,1.82 0,1.11 -0.36,1.95 -0.36,0.84000003 -1.03,1.30000003 -0.67,0.46 -1.56,0.46 -0.49,0 -1.04,-0.14 -0.55,-0.15 -0.98,-0.38 z m 1.86,-5.01 q -0.71,0 -1.14,0.4 -0.43,0.4 -0.43,1.1 0,0.66 0.41,1.05 0.41,0.39 1.1,0.39 0.51,0 0.88,-0.2 0.38,-0.21 0.58,-0.55 0.2,-0.35 0.2,-0.75 0,-0.34 -0.18,-0.67 -0.17,-0.34 -0.53,-0.55 -0.36,-0.22 -0.89,-0.22 z" />
      <path
         id="path51"
         style="font-weight:400;font-size:10px;font-family:Montserrat;text-anchor:middle"
         d="m -2.2498793,-7.0520963 h 2.55 v 7.00000003 h -0.96 V -6.1820963 h -1.59 z" />
      <path
         id="path53"
         style="font-weight:400;font-size:10px;font-family:Montserrat;text-anchor:middle"
         d="m 6.9915269,-2.7120963 v 0.86 h -1.08 v 1.80000003 h -0.9 V -1.8520963 h -3.47 v -0.74 l 2.5,-4.46 h 0.94 l -2.4,4.34 h 2.43 v -1.79 h 0.9 v 1.79 z" />
      <path
         id="path55"
         style="font-weight:400;font-size:10px;font-family:Montserrat;text-anchor:middle"
         d="m 7.3594957,-7.0520963 h 2.55 v 7.00000003 h -0.96 V -6.1820963 h -1.59 z" />
      <path
         id="path57"
         style="font-weight:400;font-size:10px;font-family:Montserrat;text-anchor:middle"
         d="m 14.180902,-7.0920963 q 1.06,0 1.67,0.48 0.61,0.47 0.61,1.3 0,0.52 -0.29,0.92 -0.28,0.39 -0.79,0.6 0.67,0.21 1.05,0.68 0.38,0.46 0.38,1.1 0,0.93 -0.71,1.47000003 -0.7,0.54 -1.91,0.54 -1.21,0 -1.92,-0.53 -0.7,-0.54000003 -0.7,-1.46000003 0,-0.65 0.39,-1.12 0.39,-0.47 1.08,-0.68 -0.54,-0.23 -0.84,-0.62 -0.29,-0.4 -0.29,-0.93 0,-0.81 0.61,-1.28 0.61,-0.47 1.66,-0.47 z m 0.01,0.7 q -0.69,0 -1.08,0.3 -0.38,0.3 -0.38,0.83 0,0.54 0.38,0.84 0.39,0.3 1.08,0.3 0.69,0 1.07,-0.3 0.38,-0.3 0.38,-0.84 0,-0.53 -0.38,-0.83 -0.38,-0.3 -1.07,-0.3 z m -0.01,3.03 q -0.8,0 -1.25,0.34 -0.45,0.33 -0.45,0.92 0,0.63 0.45,0.98 0.45,0.35000003 1.26,0.35000003 0.8,0 1.25,-0.35000003 0.46,-0.35 0.46,-0.97 0,-0.59 -0.46,-0.93 -0.45,-0.34 -1.26,-0.34 z" />
      <path
         id="path59"
         style="font-weight:400;font-size:10px;font-family:Montserrat;text-anchor:middle"
         d="m 23.595277,-7.0920963 q 1.41,0 2.17,0.92 0.76,0.91 0.76,2.62 0,1.71 -0.76,2.63000003 -0.76,0.92 -2.17,0.92 -1.42,0 -2.18,-0.92 -0.75,-0.92000003 -0.75,-2.63000003 0,-1.71 0.75,-2.62 0.76,-0.92 2.18,-0.92 z m 0,0.76 q -1.94,0 -1.94,2.78 0,1.38 0.49,2.08 0.49,0.70000003 1.45,0.70000003 0.96,0 1.45,-0.70000003 0.49,-0.7 0.49,-2.08 0,-2.78 -1.94,-2.78 z" />
      <path
         id="path61"
         style="font-weight:400;font-size:10px;font-family:Montserrat;text-anchor:middle"
         d="m 30.704652,-7.0920963 q 1.41,0 2.17,0.92 0.76,0.91 0.76,2.62 0,1.71 -0.76,2.63000003 -0.76,0.92 -2.17,0.92 -1.42,0 -2.18,-0.92 -0.75,-0.92000003 -0.75,-2.63000003 0,-1.71 0.75,-2.62 0.76,-0.92 2.18,-0.92 z m 0,0.76 q -1.94,0 -1.94,2.78 0,1.38 0.49,2.08 0.49,0.70000003 1.45,0.70000003 0.96,0 1.45,-0.70000003 0.49,-0.7 0.49,-2.08 0,-2.78 -1.94,-2.78 z" />
      <path
         id="path63"
         style="font-weight:400;font-size:10px;font-family:Montserrat;text-anchor:middle"
         d="m 37.814027,-7.0920963 q 1.41,0 2.17,0.92 0.76,0.91 0.76,2.62 0,1.71 -0.76,2.63000003 -0.76,0.92 -2.17,0.92 -1.42,0 -2.18,-0.92 -0.75,-0.92000003 -0.75,-2.63000003 0,-1.71 0.75,-2.62 0.76,-0.92 2.18,-0.92 z m 0,0.76 q -1.94,0 -1.94,2.78 0,1.38 0.49,2.08 0.49,0.70000003 1.45,0.70000003 0.96,0 1.45,-0.70000003 0.49,-0.7 0.49,-2.08 0,-2.78 -1.94,-2.78 z" />
      <path
         id="path65"
         style="font-weight:400;font-size:10px;font-family:Montserrat;text-anchor:middle"
         d="m 44.923402,-7.0920963 q 1.41,0 2.17,0.92 0.76,0.91 0.76,2.62 0,1.71 -0.76,2.63000003 -0.76,0.92 -2.17,0.92 -1.42,0 -2.18,-0.92 -0.75,-0.92000003 -0.75,-2.63000003 0,-1.71 0.75,-2.62 0.76,-0.92 2.18,-0.92 z m 0,0.76 q -1.94,0 -1.94,2.78 0,1.38 0.49,2.08 0.49,0.70000003 1.45,0.70000003 0.96,0 1.45,-0.70000003 0.49,-0.7 0.49,-2.08 0,-2.78 -1.94,-2.78 z" />
      <path
         id="path67"
         style="font-weight:400;font-size:10px;font-family:Montserrat;text-anchor:middle"
         d="m 49.602777,-1.2520963 q 0.34,0.21 0.75,0.33000003 0.42,0.11 0.83,0.11 1,0 1.53,-0.70000003 0.54,-0.71 0.54,-1.93 0,-0.19 -0.01,-0.29 -0.25,0.58 -0.77,0.88 -0.51,0.3 -1.24,0.3 -1.04,0 -1.64,-0.6 -0.6,-0.6 -0.6,-1.62 0,-0.71 0.3,-1.23 0.3,-0.53 0.84,-0.81 0.55,-0.28 1.27,-0.28 0.86,0 1.49,0.4 0.63,0.4 0.96,1.16 0.34,0.76 0.34,1.82 0,1.11 -0.36,1.95 -0.36,0.84000003 -1.03,1.30000003 -0.67,0.46 -1.56,0.46 -0.49,0 -1.04,-0.14 -0.55,-0.15 -0.98,-0.38 z m 1.86,-5.01 q -0.71,0 -1.14,0.4 -0.43,0.4 -0.43,1.1 0,0.66 0.41,1.05 0.41,0.39 1.1,0.39 0.51,0 0.88,-0.2 0.38,-0.21 0.58,-0.55 0.2,-0.35 0.2,-0.75 0,-0.34 -0.18,-0.67 -0.17,-0.34 -0.53,-0.55 -0.36,-0.22 -0.89,-0.22 z" />
    </g>
    <g
       id="center_1_"
       style="font-weight:400;font-size:10px;font-family:Montserrat;text-anchor:middle"
       transform="matrix(1,0.00226,-0.00226,1,88.9292,86.3302)"
       aria-label="anchit@iitk.ac.in">
      <path
         id="path70"
         style="font-weight:400;font-size:10px;font-family:Montserrat;text-anchor:middle"
         d="m 5.0195891,-0.09384452 v -0.74 q -0.59,0.78 -1.85,0.78 -0.55,0 -0.97,-0.21 -0.41,-0.21 -0.64,-0.58 -0.22,-0.36999998 -0.22,-0.82999998 0,-0.71 0.52,-1.12 0.53,-0.42 1.47,-0.43 h 1.68 v -0.25 q 0,-0.56 -0.35,-0.86 -0.34,-0.31 -1,-0.31 -0.8,0 -1.63,0.57 l -0.39,-0.64 q 0.57,-0.37 1.05,-0.53 0.49,-0.17 1.16,-0.17 0.99,0 1.53,0.49 0.54,0.48 0.55,1.35 l 0.01,3.47999998 z m -1.66,-0.73 q 0.65,0 1.1,-0.30999998 0.46,-0.32 0.55,-0.84 v -0.53 h -1.55 q -0.63,0 -0.94,0.19 -0.3,0.19 -0.3,0.6 0,0.41 0.31,0.65 0.31,0.23999998 0.83,0.23999998 z" />
      <path
         id="path72"
         style="font-weight:400;font-size:10px;font-family:Montserrat;text-anchor:middle"
         d="m 10.53037,-5.4138445 q 0.93,0 1.46,0.55 0.53,0.54 0.53,1.5 v 3.26999998 h -0.93 V -3.1138445 q 0,-0.67 -0.38,-1.04 -0.37,-0.38 -1.03,-0.38 -0.7099997,0.01 -1.1599997,0.46 -0.44,0.44 -0.5,1.15 v 2.82999998 h -0.93 V -5.3838445 h 0.93 v 1.12 q 0.53,-1.13 2.0099997,-1.15 z" />
      <path
         id="path74"
         style="font-weight:400;font-size:10px;font-family:Montserrat;text-anchor:middle"
         d="m 17.882402,-3.9738445 q -0.63,-0.61 -1.51,-0.61 -0.52,0 -0.93,0.23 -0.4,0.23 -0.63,0.65 -0.23,0.42 -0.23,0.97 0,0.55 0.22,0.97 0.23,0.42 0.62,0.66 0.4,0.22999998 0.91,0.22999998 0.51,0 0.92,-0.16999998 0.41,-0.17 0.68,-0.49 l 0.53,0.53999998 q -0.36,0.45 -0.92,0.69 -0.55,0.24 -1.25,0.24 -0.77,0 -1.37,-0.34 -0.6,-0.34 -0.94,-0.93999998 -0.33,-0.61 -0.33,-1.39 0,-0.78 0.33,-1.39 0.34,-0.61 0.94,-0.95 0.6,-0.34 1.37,-0.34 0.67,0 1.2,0.21 0.54,0.2 0.9,0.59 z" />
      <path
         id="path76"
         style="font-weight:400;font-size:10px;font-family:Montserrat;text-anchor:middle"
         d="m 22.797402,-5.4138445 q 0.93,0 1.46,0.55 0.53,0.54 0.53,1.5 v 3.26999998 h -0.93 V -3.1138445 q 0,-0.67 -0.38,-1.04 -0.37,-0.38 -1.03,-0.38 -0.77,0.01 -1.22,0.52 -0.45,0.51 -0.45,1.32 v 2.59999998 h -0.93 V -7.5138445 h 0.93 v 3.27 q 0.53,-1.15 2.02,-1.17 z" />
      <path
         id="path78"
         style="font-weight:400;font-size:10px;font-family:Montserrat;text-anchor:middle"
         d="m 26.438027,-5.3838445 h 0.93 v 5.28999998 h -0.93 z m 0.46,-2.11 q 0.25,0 0.41,0.17 0.17,0.17 0.17,0.43 0,0.26 -0.17,0.43 -0.16,0.17 -0.41,0.17 -0.25,0 -0.42,-0.17 -0.16,-0.17 -0.16,-0.43 0,-0.26 0.16,-0.43 0.17,-0.17 0.42,-0.17 z" />
      <path
         id="path80"
         style="font-weight:400;font-size:10px;font-family:Montserrat;text-anchor:middle"
         d="m 32.012402,-0.44384452 q -0.61,0.39 -1.24,0.39 -0.63,0 -1.02,-0.37 -0.39,-0.38 -0.39,-1.13999998 v -2.93 h -0.75 v -0.71 h 0.75 v -1.42 h 0.94 v 1.42 h 1.62 v 0.71 h -1.62 v 2.76 q 0,0.44 0.16,0.63 0.16,0.18999998 0.48,0.18999998 0.38,0 0.82,-0.24999998 z" />
      <path
         id="path82"
         style="font-weight:400;font-size:10px;font-family:Montserrat;text-anchor:middle"
         d="m 39.407245,-1.4838445 q 0,0.3 0.14,0.46 0.15,0.14999998 0.38,0.14999998 0.28,0 0.51,-0.23999998 0.24,-0.24 0.37,-0.67 0.14,-0.43 0.14,-0.98 0,-1.05 -0.47,-1.89 -0.46,-0.84 -1.32,-1.32 -0.85,-0.48 -1.97,-0.48 -1.07,0 -1.96,0.49 -0.89,0.49 -1.4,1.34 -0.51,0.85 -0.51,1.87 0,1 0.49,1.80999998 0.49,0.8 1.34,1.25 0.86,0.46 1.91,0.46 0.46,0 0.98,-0.15 0.53,-0.14 0.92,-0.41 l 0.34,0.63 q -0.43,0.29000002 -1.06,0.47000002 -0.63,0.18 -1.18,0.18 -1.26,0 -2.28,-0.55000002 -1.01,-0.55 -1.59,-1.52 -0.58,-0.96999998 -0.58,-2.16999998 0,-1.23 0.6,-2.23 0.61,-1.01 1.65,-1.58 1.05,-0.58 2.33,-0.58 1.27,0 2.29,0.56 1.03,0.56 1.61,1.56 0.58,0.99 0.58,2.23 0,0.76 -0.23,1.34 -0.23,0.56999998 -0.65,0.88999998 -0.41,0.31 -0.95,0.31 -0.45,0 -0.75,-0.22 -0.29,-0.23 -0.35,-0.64999998 l -0.02,-0.28 q -0.3,0.49999998 -0.79,0.75999998 -0.48,0.26 -1.07,0.26 -0.63,0 -1.17,-0.3 -0.54,-0.31 -0.86,-0.85999998 -0.32,-0.55 -0.32,-1.24 0,-0.67 0.28,-1.22 0.29,-0.56 0.81,-0.88 0.52,-0.32 1.18,-0.32 0.43,0 0.79,0.15 0.37,0.14 0.62,0.35 0.25,0.2 0.34,0.39 v -0.81 h 0.88 z m -2.47,-2.87 q -0.43,0 -0.77,0.21 -0.33,0.2 -0.52,0.55 -0.19,0.35 -0.19,0.77 0,0.44 0.19,0.81 0.19,0.36 0.53,0.57 0.35,0.21 0.78,0.21 0.67,0 1.09,-0.45 0.42,-0.45 0.42,-1.13 0,-0.43 -0.19,-0.78 -0.19,-0.35 -0.54,-0.55 -0.35,-0.21 -0.8,-0.21 z" />
      <path
         id="path84"
         style="font-weight:400;font-size:10px;font-family:Montserrat;text-anchor:middle"
         d="m 42.941933,-5.3838445 h 0.93 v 5.28999998 h -0.93 z m 0.46,-2.11 q 0.25,0 0.41,0.17 0.17,0.17 0.17,0.43 0,0.26 -0.17,0.43 -0.16,0.17 -0.41,0.17 -0.25,0 -0.42,-0.17 -0.16,-0.17 -0.16,-0.43 0,-0.26 0.16,-0.43 0.17,-0.17 0.42,-0.17 z" />
      <path
         id="path86"
         style="font-weight:400;font-size:10px;font-family:Montserrat;text-anchor:middle"
         d="m 45.676308,-5.3838445 h 0.93 v 5.28999998 h -0.93 z m 0.46,-2.11 q 0.25,0 0.41,0.17 0.17,0.17 0.17,0.43 0,0.26 -0.17,0.43 -0.16,0.17 -0.41,0.17 -0.25,0 -0.42,-0.17 -0.16,-0.17 -0.16,-0.43 0,-0.26 0.16,-0.43 0.17,-0.17 0.42,-0.17 z" />
      <path
         id="path88"
         style="font-weight:400;font-size:10px;font-family:Montserrat;text-anchor:middle"
         d="m 51.250683,-0.44384452 q -0.61,0.39 -1.24,0.39 -0.63,0 -1.02,-0.37 -0.39,-0.38 -0.39,-1.13999998 v -2.93 h -0.75 v -0.71 h 0.75 v -1.42 h 0.94 v 1.42 h 1.62 v 0.71 h -1.62 v 2.76 q 0,0.44 0.16,0.63 0.16,0.18999998 0.48,0.18999998 0.38,0 0.82,-0.24999998 z" />
      <path
         id="path90"
         style="font-weight:400;font-size:10px;font-family:Montserrat;text-anchor:middle"
         d="m 56.075527,-0.09384452 -1.69,-2.56999998 -1.03,1.07 v 1.49999998 h -0.93 V -7.5138445 h 0.93 v 4.73 l 2.56,-2.6 h 1.09 l -1.97,2.05 2.16,3.23999998 z" />
      <path
         id="path92"
         style="font-weight:400;font-size:10px;font-family:Montserrat;text-anchor:middle"
         d="m 58.325839,-1.1538445 q 0.23,0 0.38,0.15999998 0.16,0.16 0.16,0.41 0,0.25 -0.16,0.42 -0.15,0.16 -0.38,0.16 -0.23,0 -0.39,-0.16 -0.16,-0.17 -0.16,-0.42 0,-0.25 0.16,-0.41 0.16,-0.15999998 0.39,-0.15999998 z" />
      <path
         id="path94"
         style="font-weight:400;font-size:10px;font-family:Montserrat;text-anchor:middle"
         d="m 63.496152,-0.09384452 v -0.74 q -0.59,0.78 -1.85,0.78 -0.55,0 -0.97,-0.21 -0.41,-0.21 -0.64,-0.58 -0.22,-0.36999998 -0.22,-0.82999998 0,-0.71 0.52,-1.12 0.53,-0.42 1.47,-0.43 h 1.68 v -0.25 q 0,-0.56 -0.35,-0.86 -0.34,-0.31 -1,-0.31 -0.8,0 -1.63,0.57 l -0.39,-0.64 q 0.57,-0.37 1.05,-0.53 0.49,-0.17 1.16,-0.17 0.99,0 1.53,0.49 0.54,0.48 0.55,1.35 l 0.01,3.47999998 z m -1.66,-0.73 q 0.65,0 1.1,-0.30999998 0.46,-0.32 0.55,-0.84 v -0.53 h -1.55 q -0.63,0 -0.94,0.19 -0.3,0.19 -0.3,0.6 0,0.41 0.31,0.65 0.31,0.23999998 0.83,0.23999998 z" />
      <path
         id="path96"
         style="font-weight:400;font-size:10px;font-family:Montserrat;text-anchor:middle"
         d="m 69.776933,-3.9738445 q -0.63,-0.61 -1.51,-0.61 -0.52,0 -0.93,0.23 -0.4,0.23 -0.63,0.65 -0.23,0.42 -0.23,0.97 0,0.55 0.22,0.97 0.23,0.42 0.62,0.66 0.4,0.22999998 0.91,0.22999998 0.51,0 0.92,-0.16999998 0.41,-0.17 0.68,-0.49 l 0.53,0.53999998 q -0.36,0.45 -0.92,0.69 -0.55,0.24 -1.25,0.24 -0.77,0 -1.37,-0.34 -0.6,-0.34 -0.94,-0.93999998 -0.33,-0.61 -0.33,-1.39 0,-0.78 0.33,-1.39 0.34,-0.61 0.94,-0.95 0.6,-0.34 1.37,-0.34 0.67,0 1.2,0.21 0.54,0.2 0.9,0.59 z" />
      <path
         id="path98"
         style="font-weight:400;font-size:10px;font-family:Montserrat;text-anchor:middle"
         d="m 71.821933,-1.1538445 q 0.23,0 0.38,0.15999998 0.16,0.16 0.16,0.41 0,0.25 -0.16,0.42 -0.15,0.16 -0.38,0.16 -0.23,0 -0.39,-0.16 -0.16,-0.17 -0.16,-0.42 0,-0.25 0.16,-0.41 0.16,-0.15999998 0.39,-0.15999998 z" />
      <path
         id="path100"
         style="font-weight:400;font-size:10px;font-family:Montserrat;text-anchor:middle"
         d="m 73.762245,-5.3838445 h 0.93 v 5.28999998 h -0.93 z m 0.46,-2.11 q 0.25,0 0.41,0.17 0.17,0.17 0.17,0.43 0,0.26 -0.17,0.43 -0.16,0.17 -0.41,0.17 -0.25,0 -0.42,-0.17 -0.16,-0.17 -0.16,-0.43 0,-0.26 0.16,-0.43 0.17,-0.17 0.42,-0.17 z" />
      <path
         id="path102"
         style="font-weight:400;font-size:10px;font-family:Montserrat;text-anchor:middle"
         d="m 79.43662,-5.4138445 q 0.93,0 1.46,0.55 0.53,0.54 0.53,1.5 v 3.26999998 h -0.93 V -3.1138445 q 0,-0.67 -0.38,-1.04 -0.37,-0.38 -1.03,-0.38 -0.71,0.01 -1.16,0.46 -0.44,0.44 -0.5,1.15 v 2.82999998 h -0.93 V -5.3838445 h 0.93 v 1.12 q 0.53,-1.13 2.01,-1.15 z" />
    </g>
    <g
       id="center"
       style="font-weight:400;font-size:10px;font-family:Montserrat;text-anchor:middle"
       transform="matrix(1,0.00226,-0.00226,1,91.124,114.3352)"
       aria-label="www.techers.com">
      <path
         id="path105"
         style="font-weight:400;font-size:10px;font-family:Montserrat;text-anchor:middle"
         d="m -4.2997462,-5.380414 h 0.97 l 1.48,4.37 1.45999995,-4.37 h 0.97 l 1.47000005,4.37 1.46,-4.37 h 0.96 l -1.95,5.29 h -0.97 l -1.46000005,-4.16 -1.45999995,4.16 h -0.97 z" />
      <path
         id="path107"
         style="font-weight:400;font-size:10px;font-family:Montserrat;text-anchor:middle"
         d="m 4.469785,-5.380414 h 0.97 l 1.48,4.37 1.46,-4.37 h 0.97 l 1.47,4.37 1.46,-4.37 h 0.96 l -1.95,5.29 h -0.97 l -1.46,-4.16 -1.46,4.16 h -0.97 z" />
      <path
         id="path109"
         style="font-weight:400;font-size:10px;font-family:Montserrat;text-anchor:middle"
         d="m 13.239316,-5.380414 h 0.97 l 1.48,4.37 1.46,-4.37 h 0.97 l 1.47,4.37 1.46,-4.37 h 0.96 l -1.95,5.29 h -0.97 l -1.46,-4.16 -1.46,4.16 h -0.97 z" />
      <path
         id="path111"
         style="font-weight:400;font-size:10px;font-family:Montserrat;text-anchor:middle"
         d="m 22.843066,-1.150414 q 0.23,0 0.38,0.16 0.16,0.16 0.16,0.41 0,0.25 -0.16,0.42 -0.15,0.16000000491 -0.38,0.16000000491 -0.23,0 -0.39,-0.16000000491 -0.16,-0.17 -0.16,-0.42 0,-0.25 0.16,-0.41 0.16,-0.16 0.39,-0.16 z" />
      <path
         id="path113"
         style="font-weight:400;font-size:10px;font-family:Montserrat;text-anchor:middle"
         d="m 27.623379,-0.440414 q -0.61,0.39 -1.24,0.39 -0.63,0 -1.02,-0.37 -0.39,-0.38 -0.39,-1.14 v -2.93 h -0.75 v -0.71 h 0.75 v -1.42 h 0.94 v 1.42 h 1.62 v 0.71 h -1.62 v 2.76 q 0,0.44 0.16,0.63 0.16,0.19 0.48,0.19 0.38,0 0.82,-0.25 z" />
      <path
         id="path115"
         style="font-weight:400;font-size:10px;font-family:Montserrat;text-anchor:middle"
         d="m 30.790098,-5.410414 q 1.23,0 1.86,0.73 0.63,0.72 0.63,2.01 0,0.2 -0.01,0.3 h -4.18 q 0.11,0.71 0.59,1.13 0.49,0.42 1.2,0.42 0.47,0 0.87,-0.17 0.41,-0.17 0.71,-0.48 l 0.51,0.53 q -0.39,0.42 -0.94,0.65 -0.55,0.23 -1.22,0.23 -0.78,0 -1.39,-0.33 -0.6,-0.34 -0.94,-0.95 -0.33,-0.61 -0.33,-1.39 0,-0.78 0.33,-1.38 0.34,-0.61 0.94,-0.95 0.6,-0.35 1.37,-0.35 z m 1.65,2.32 q -0.04,-0.72 -0.48,-1.13 -0.44,-0.42 -1.16,-0.42 -0.7,0 -1.17,0.42 -0.46,0.42 -0.55,1.13 z" />
      <path
         id="path117"
         style="font-weight:400;font-size:10px;font-family:Montserrat;text-anchor:middle"
         d="m 38.259004,-3.970414 q -0.63,-0.61 -1.51,-0.61 -0.52,0 -0.93,0.23 -0.4,0.23 -0.63,0.65 -0.23,0.42 -0.23,0.97 0,0.55 0.22,0.97 0.23,0.42 0.62,0.66 0.4,0.23 0.91,0.23 0.51,0 0.92,-0.17 0.41,-0.17 0.68,-0.49 l 0.53,0.54 q -0.36,0.45 -0.92,0.69 -0.55,0.24 -1.25,0.24 -0.77,0 -1.37,-0.34 -0.6,-0.34 -0.94,-0.94 -0.33,-0.61 -0.33,-1.39 0,-0.78 0.33,-1.39 0.34,-0.61 0.94,-0.95 0.6,-0.34 1.37,-0.34 0.67,0 1.2,0.21 0.54,0.2 0.9,0.59 z" />
      <path
         id="path119"
         style="font-weight:400;font-size:10px;font-family:Montserrat;text-anchor:middle"
         d="m 43.174004,-5.410414 q 0.93,0 1.46,0.55 0.53,0.54 0.53,1.5 v 3.27 h -0.93 v -3.02 q 0,-0.67 -0.38,-1.04 -0.37,-0.38 -1.03,-0.38 -0.77,0.01 -1.22,0.52 -0.45,0.51 -0.45,1.32 v 2.6 h -0.93 v -7.42 h 0.93 v 3.27 q 0.53,-1.15 2.02,-1.17 z" />
      <path
         id="path121"
         style="font-weight:400;font-size:10px;font-family:Montserrat;text-anchor:middle"
         d="m 48.934629,-5.410414 q 1.23,0 1.86,0.73 0.63,0.72 0.63,2.01 0,0.2 -0.01,0.3 h -4.18 q 0.11,0.71 0.59,1.13 0.49,0.42 1.2,0.42 0.47,0 0.87,-0.17 0.41,-0.17 0.71,-0.48 l 0.51,0.53 q -0.39,0.42 -0.94,0.65 -0.55,0.23 -1.22,0.23 -0.78,0 -1.39,-0.33 -0.6,-0.34 -0.94,-0.95 -0.33,-0.61 -0.33,-1.39 0,-0.78 0.33,-1.38 0.34,-0.61 0.94,-0.95 0.6,-0.35 1.37,-0.35 z m 1.65,2.32 q -0.04,-0.72 -0.48,-1.13 -0.44,-0.42 -1.16,-0.42 -0.7,0 -1.17,0.42 -0.46,0.42 -0.55,1.13 z" />
      <path
         id="path123"
         style="font-weight:400;font-size:10px;font-family:Montserrat;text-anchor:middle"
         d="m 53.623535,-4.240414 q 0.26,-0.57 0.74,-0.86 0.48,-0.3 1.14,-0.31 v 0.9 q -0.81,-0.03 -1.31,0.42 -0.5,0.45 -0.57,1.21 v 2.79 h -0.93 v -5.29 h 0.93 z" />
      <path
         id="path125"
         style="font-weight:400;font-size:10px;font-family:Montserrat;text-anchor:middle"
         d="m 59.41166,-4.210414 q -0.33,-0.2 -0.73,-0.32 -0.39,-0.12 -0.75,-0.12 -0.42,0 -0.68,0.16 -0.25,0.15 -0.25,0.47 0,0.32 0.28,0.49 0.29,0.16 0.87,0.33 0.55,0.16 0.9,0.32 0.35,0.16 0.59,0.47 0.25,0.31 0.25,0.82 0,0.75 -0.57,1.14 -0.56,0.39 -1.4,0.39 -0.59,0 -1.15,-0.19 -0.55,-0.19 -0.93,-0.54 l 0.35,-0.68 q 0.33,0.3 0.81,0.48 0.49,0.18 0.95,0.18 0.46,0 0.74,-0.17 0.28,-0.17 0.28,-0.52 0,-0.36 -0.3,-0.54 -0.29,-0.18 -0.89,-0.36 -0.53,-0.15 -0.87,-0.3 -0.33,-0.16 -0.57,-0.46 -0.23,-0.3 -0.23,-0.78 0,-0.74 0.54,-1.11 0.54,-0.37 1.35,-0.37 0.48,0 0.94,0.14 0.47,0.13 0.81,0.36 z" />
      <path
         id="path127"
         style="font-weight:400;font-size:10px;font-family:Montserrat;text-anchor:middle"
         d="m 61.261035,-1.150414 q 0.23,0 0.38,0.16 0.16,0.16 0.16,0.41 0,0.25 -0.16,0.42 -0.15,0.16000000491 -0.38,0.16000000491 -0.23,0 -0.39,-0.16000000491 -0.16,-0.17 -0.16,-0.42 0,-0.25 0.16,-0.41 0.16,-0.16 0.39,-0.16 z" />
      <path
         id="path129"
         style="font-weight:400;font-size:10px;font-family:Montserrat;text-anchor:middle"
         d="m 66.911348,-3.970414 q -0.63,-0.61 -1.51,-0.61 -0.52,0 -0.93,0.23 -0.4,0.23 -0.63,0.65 -0.23,0.42 -0.23,0.97 0,0.55 0.22,0.97 0.23,0.42 0.62,0.66 0.4,0.23 0.91,0.23 0.51,0 0.92,-0.17 0.41,-0.17 0.68,-0.49 l 0.53,0.54 q -0.36,0.45 -0.92,0.69 -0.55,0.24 -1.25,0.24 -0.77,0 -1.37,-0.34 -0.6,-0.34 -0.94,-0.94 -0.33,-0.61 -0.33,-1.39 0,-0.78 0.33,-1.39 0.34,-0.61 0.94,-0.95 0.6,-0.34 1.37,-0.34 0.67,0 1.2,0.21 0.54,0.2 0.9,0.59 z" />
      <path
         id="path131"
         style="font-weight:400;font-size:10px;font-family:Montserrat;text-anchor:middle"
         d="m 70.791973,-5.410414 q 0.79,0 1.4,0.34 0.62,0.34 0.96,0.95 0.35,0.6 0.35,1.38 0,0.78 -0.35,1.39 -0.34,0.61 -0.96,0.95 -0.61,0.34 -1.4,0.34 -0.8,0 -1.42,-0.34 -0.61,-0.34 -0.96,-0.94 -0.34,-0.61 -0.34,-1.4 0,-0.78 0.34,-1.38 0.35,-0.61 0.96,-0.95 0.62,-0.34 1.42,-0.34 z m 0,0.81 q -0.52,0 -0.93,0.24 -0.4,0.24 -0.63,0.67 -0.22,0.42 -0.22,0.96 0,0.55 0.22,0.98 0.23,0.43 0.63,0.67 0.41,0.23 0.93,0.23 0.51,0 0.91,-0.23 0.41,-0.24 0.63,-0.67 0.23,-0.43 0.23,-0.98 0,-0.54 -0.23,-0.96 -0.22,-0.43 -0.63,-0.67 -0.4,-0.24 -0.91,-0.24 z" />
      <path
         id="path133"
         style="font-weight:400;font-size:10px;font-family:Montserrat;text-anchor:middle"
         d="m 81.63291,-5.410414 q 0.91,0 1.43,0.55 0.52,0.55 0.52,1.5 v 3.27 h -0.94 v -3.02 q 0,-0.67 -0.37,-1.05 -0.36,-0.38 -1,-0.38 -0.75,0.02 -1.18,0.53 -0.43,0.51 -0.43,1.31 v 2.61 h -0.94 v -3.02 q 0,-0.67 -0.36,-1.05 -0.36,-0.38 -1.01,-0.38 -0.75,0.02 -1.19,0.53 -0.43,0.51 -0.43,1.31 v 2.61 h -0.93 v -5.29 h 0.93 v 1.11 q 0.52,-1.12 1.97,-1.14 0.73,0 1.21,0.35 0.49,0.35 0.66,0.98 0.49,-1.31 2.06,-1.33 z" />
    </g>
  </g>
</svg>
