<svg xmlns:dc="http://purl.org/dc/elements/1.1/" xmlns:cc="http://creativecommons.org/ns#" xmlns:rdf="http://www.w3.org/1999/02/22-rdf-syntax-ns#" xmlns:svg="http://www.w3.org/2000/svg" xmlns="http://www.w3.org/2000/svg" xmlns:xlink="http://www.w3.org/1999/xlink" id="svg46197" viewBox="0 0 1024 768" height="768px" width="1024px" version="1.1">
  <metadata id="metadata46203">
    <rdf:rdf>
      <cc:work rdf:about="">
        <dc:format>image/svg+xml</dc:format>
        <dc:type rdf:resource="http://purl.org/dc/dcmitype/StillImage"></dc:type>
      </cc:work>
    </rdf:rdf>
  </metadata>
  <defs id="defs46201"></defs>
  <linearGradient spreadMethod="pad" y2="30%" x2="-10%" y1="120%" x1="30%" id="3d_gradient2-logo-5b40faa6-a0f5-4457-a207-0ed9b3cec41f">
    <stop id="stop46178" stop-opacity="1" stop-color="#ffffff" offset="0%"></stop>
    <stop id="stop46180" stop-opacity="1" stop-color="#000000" offset="100%"></stop>
  </linearGradient>
  <linearGradient gradientTransform="rotate(-30)" spreadMethod="pad" y2="30%" x2="-10%" y1="120%" x1="30%" id="3d_gradient3-logo-5b40faa6-a0f5-4457-a207-0ed9b3cec41f">
    <stop id="stop46183" stop-opacity="1" stop-color="#ffffff" offset="0%"></stop>
    <stop id="stop46185" stop-opacity="1" stop-color="#cccccc" offset="50%"></stop>
    <stop id="stop46187" stop-opacity="1" stop-color="#000000" offset="100%"></stop>
  </linearGradient>
  <g id="logo-group">
    <image xlink:href="" id="container" x="272" y="144" width="480" height="480" style="display: none;" transform="translate(0 0)"></image>
    <g id="logo-center" transform="translate(0 0)">
      <image xlink:href="" id="icon_container" x="0" y="0" style="display: none;"></image>
      <g id="slogan" style="font-style:normal;font-weight:200;font-size:32px;line-height:1;font-family:'Work Sans';font-variant-ligatures:none;text-align:center;text-anchor:middle" transform="translate(0 0)"></g>
      <g id="title" style="font-style:normal;font-weight:normal;font-size:72px;line-height:1;font-family:'Permanent Marker';font-variant-ligatures:none;text-align:center;text-anchor:middle" transform="translate(0 0)">
        <path id="path46206" style="font-style:normal;font-weight:normal;font-size:72px;line-height:1;font-family:'Permanent Marker';font-variant-ligatures:none;text-align:center;text-anchor:middle" d="m 446.39844,-39.65625 q -0.0703,-0.5625 -0.28125,-0.984375 -0.14063,-0.492187 -0.35157,-1.054687 -0.35156,-0.84375 -0.63281,-1.828125 -0.28125,-0.984375 -0.28125,-2.320313 0.14063,-0.703125 0.35156,-0.984375 0.21094,-0.351562 0.42188,-0.5625 l 0.28125,-1.265625 h 1.05469 q 0.5625,0.07031 1.125,0.07031 0.63281,0 1.19531,0 2.67187,0 5.48437,-0.210938 2.8125,-0.210937 5.76563,-0.492187 3.23437,-0.421875 6.96094,-0.632813 0.35156,-0.773437 0.42187,-0.984375 0.14063,-0.210937 0.28125,-0.492187 l 0.77344,-0.421875 q 1.61719,-0.07031 2.25,0.421875 0.63281,0.421875 0.98437,0.84375 1.82813,-0.140625 3.72657,-0.351563 1.89843,-0.28125 3.9375,-0.5625 2.8125,-0.351562 5.69531,-0.703125 2.88281,-0.351562 5.625,-0.351562 1.19531,0 2.25,0.07031 1.05469,0.07031 2.03906,0.210938 l 0.84375,0.632812 q 0.28125,0.492188 0.70313,0.914063 0.42187,0.421875 0.98437,0.84375 1.05469,0.84375 2.03906,2.109375 1.05469,1.265625 0.77344,3.726562 l -0.35156,0.703125 q -0.28125,0.28125 -0.70313,0.5625 l -0.70312,0.914063 h -0.77344 q -0.70312,0 -1.05469,0.140625 -0.35156,0.07031 -0.84375,0.28125 -0.28125,0.140625 -0.63281,0.28125 -0.35156,0.07031 -0.77344,0.210937 -0.77343,-0.07031 -1.19531,-0.07031 -0.42187,0 -0.98437,0 -2.10938,0 -4.57032,0.28125 -2.46093,0.28125 -4.78125,0.632812 -1.6875,0.210938 -3.23437,0.421875 -1.54688,0.140625 -2.8125,0.28125 -0.70313,1.828125 -1.26563,3.234375 -0.5625,1.40625 -1.19531,2.8125 -0.63281,1.40625 -1.19531,2.882813 -0.5625,1.40625 -1.05469,3.164062 -0.84375,1.265625 -1.40625,2.460938 -0.5625,1.125 -0.91406,2.601562 -1.05469,1.195313 -1.54688,2.601563 -0.42187,1.40625 -0.77343,2.390625 l -0.28125,1.054687 q -0.49219,0.492187 -0.63282,0.773437 -0.0703,0.28125 -0.35156,0.632813 -0.21094,0.914062 -0.5625,1.757812 -0.14062,0.351563 -0.28125,0.773438 -0.14062,0.351562 -0.0703,0.5625 -0.14063,0.773437 -0.42188,1.195312 0,0.421875 -0.0703,0.8437505 -0.0703,0.421875 -0.14062,0.84375 -0.14063,0.4921875 -0.21094,0.9140625 -0.0703,0.3515625 0.0703,0.703125 0.21094,0.28125 0.42188,0.5625 0.21093,0.28125 0.35156,0.703125 0.14062,0.140625 0.35156,0.2109375 0.21094,0.070312 0.35156,0.2109375 0.5625,0.4921875 1.05469,0.5625 l 0.70313,0.84375 q 0.42187,2.53125 -0.77344,3.9375 -1.26563,1.6171875 -4.21875,1.6171875 L 462.35937,1.40625 q -0.49218,-0.4921875 -0.5625,-0.6328125 -0.63281,-0.28125 -1.05468,-0.4921875 -0.42188,-0.140625 -0.77344,-0.6328125 -0.14063,-0.140625 -0.35156,-0.140625 -0.21094,-0.0703125 -0.35157,-0.2109375 -0.70312,-0.2109375 -1.125,-0.4921875 l -0.77343,-0.421875 q 0.0703,-0.703125 0.0703,-0.984375 -0.5625,-0.7734375 -0.91406,-1.6875 -0.28125,-0.9140625 -0.49219,-1.8984375 -0.21094,-0.7734375 -0.42188,-1.40625 -0.14062,-0.6328125 -0.49218,-1.125 -0.14063,-4.921875 0.91406,-8.226562 1.05469,-3.375 2.32031,-6.539063 0.70313,-1.6875 1.33594,-3.445312 0.63281,-1.757813 1.125,-3.585938 l 0.77344,-0.773437 q 0.49218,-0.421875 0.63281,-0.492188 0,-0.914062 0.35156,-1.757812 0.35156,-0.914063 0.77344,-1.828125 0.28125,-0.5625 0.49219,-1.125 0.28125,-0.5625 0.35156,-0.984375 -0.49219,0 -0.91406,0.07031 -0.35157,0 -0.77344,0.07031 -0.91406,0.210937 -1.75781,0.210937 -0.63282,0 -0.91407,-0.07031 -0.5625,0.28125 -1.05468,0.351562 -0.49219,0 -0.98438,0 h -0.84375 -0.84375 q -0.84375,0 -1.33594,0.210938 -0.98437,0 -1.26562,0 -0.28125,0 -0.63281,0 h -0.84375 -0.84375 q -0.5625,0 -1.26563,-0.07031 -0.70312,-0.140625 -1.47656,-0.5625 l -0.49219,-0.5625 q -0.42187,-0.773437 -0.77344,-0.84375 l -0.77343,-0.210937 z" stroke-width="0" stroke-linejoin="miter" stroke-miterlimit="2" fill="#52b141" stroke="#52b141" transform="translate(0 358.04688) translate(268.1143100000001 -55.04688000000001) scale(3) translate(-444.85156 52.52344)"></path>
        <path id="path46208" style="font-style:normal;font-weight:normal;font-size:72px;line-height:1;font-family:'Permanent Marker';font-variant-ligatures:none;text-align:center;text-anchor:middle" d="m 538.01562,-12.234375 q 1.6875,0.84375 1.6875,2.109375 0.0703,1.265625 -0.77343,2.390625 -0.77344,1.0546875 -2.10938,1.6171875 -1.26562,0.5625 -2.32031,-0.070312 -0.14063,0.5625 -0.63281,0.7734375 -0.42188,0.140625 -0.5625,0.6328125 -6.82032,1.0546875 -13.92188,2.6015625 -7.10156,1.546875 -14.20312,2.3203125 -5.48438,-0.2109375 -9.14063,-1.6171875 -1.47656,-1.265625 -2.25,-3.1640625 -0.70312,-1.8984375 -0.84375,-4.0078125 -0.14062,-2.1093755 0.14063,-4.0781255 0.28125,-2.039062 0.84375,-3.515624 3.65625,-4.640625 7.59375,-8.859375 4.00781,-4.289063 9.07031,-7.59375 1.47656,-1.828125 3.44531,-3.09375 1.96875,-1.335938 3.58594,-2.953125 -2.10938,-0.773438 -4.42969,-0.773438 -2.32031,0 -4.57031,0.421875 -2.25,0.351563 -4.21875,0.914063 -1.96875,0.5625 -3.44531,0.84375 -1.125,-0.5625 -2.67188,-0.632813 -1.47656,-0.07031 -2.95312,-0.5625 -0.84375,-0.703125 -1.19532,-1.828125 -0.28125,-1.125 -0.35156,-2.320312 -0.0703,-1.195313 -0.0703,-2.25 0,-1.125 -0.28125,-1.828125 0.5625,-0.914063 0.98437,-1.828125 0.49219,-0.914063 1.125,-1.6875 3.30469,-0.914063 7.3125,-1.476563 4.00782,-0.632812 8.08594,-0.5625 4.07813,0.07031 7.875,1.054688 3.79688,0.914062 6.75,3.09375 0.35156,1.96875 1.47656,3.164062 1.125,1.125 2.74219,1.757813 0.77344,1.40625 1.33594,2.882812 0.5625,1.40625 0.77344,3.023438 -1.40625,3.726562 -4.00782,6.328125 -2.53125,2.53125 -5.13281,4.640625 -1.40625,1.195312 -3.02344,2.039062 -1.61718,0.84375 -2.8125,1.96875 -0.28125,0.28125 -0.35156,0.773438 -0.0703,0.421875 -0.35156,0.632812 -1.26563,1.125 -2.8125,2.039063 -1.54688,0.84375 -2.8125,1.96875 -0.91406,0.773437 -1.54688,1.687499 -0.5625,0.914063 -1.54687,1.617188 1.26562,0.421875 2.46094,0.351562 1.26562,-0.07031 2.53125,-0.28125 1.33593,-0.210937 2.67187,-0.421875 1.40625,-0.210937 2.88281,-0.140625 2.03907,-0.703125 4.5,-1.195312 2.46094,-0.5625 4.92188,-0.421875 2.10937,-0.84375 4.00781,-1.195312 1.96875,-0.421875 3.72656,-0.210938 0.91407,0.351563 1.33594,1.265625 0.49219,0.914062 1.47656,1.265625 -0.21093,0.773437 -0.14062,1.125 0.14062,0.351562 0.14062,1.265625 z" stroke-width="0" stroke-linejoin="miter" stroke-miterlimit="2" fill="#52b141" stroke="#52b141" transform="translate(0 358.04688) translate(436.25495 -54.43515300000001) scale(3) translate(-492.89844 52.319531)"></path>
        <path id="path46210" style="font-style:normal;font-weight:normal;font-size:72px;line-height:1;font-family:'Permanent Marker';font-variant-ligatures:none;text-align:center;text-anchor:middle" d="m 536.96094,-39.65625 q -0.0703,-0.5625 -0.28125,-0.984375 -0.14063,-0.492187 -0.35157,-1.054687 -0.35156,-0.84375 -0.63281,-1.828125 -0.28125,-0.984375 -0.28125,-2.320313 0.14063,-0.703125 0.35156,-0.984375 0.21094,-0.351562 0.42188,-0.5625 l 0.28125,-1.265625 h 1.05469 q 0.5625,0.07031 1.125,0.07031 0.63281,0 1.19531,0 2.67187,0 5.48437,-0.210938 2.8125,-0.210937 5.76563,-0.492187 3.23437,-0.421875 6.96094,-0.632813 0.35156,-0.773437 0.42187,-0.984375 0.14063,-0.210937 0.28125,-0.492187 l 0.77344,-0.421875 q 1.61719,-0.07031 2.25,0.421875 0.63281,0.421875 0.98437,0.84375 1.82813,-0.140625 3.72657,-0.351563 1.89843,-0.28125 3.9375,-0.5625 2.8125,-0.351562 5.69531,-0.703125 2.88281,-0.351562 5.625,-0.351562 1.19531,0 2.25,0.07031 1.05469,0.07031 2.03906,0.210938 l 0.84375,0.632812 q 0.28125,0.492188 0.70313,0.914063 0.42187,0.421875 0.98437,0.84375 1.05469,0.84375 2.03906,2.109375 1.05469,1.265625 0.77344,3.726562 l -0.35156,0.703125 q -0.28125,0.28125 -0.70313,0.5625 l -0.70312,0.914063 h -0.77344 q -0.70312,0 -1.05469,0.140625 -0.35156,0.07031 -0.84375,0.28125 -0.28125,0.140625 -0.63281,0.28125 -0.35156,0.07031 -0.77344,0.210937 -0.77343,-0.07031 -1.19531,-0.07031 -0.42187,0 -0.98437,0 -2.10938,0 -4.57032,0.28125 -2.46093,0.28125 -4.78125,0.632812 -1.6875,0.210938 -3.23437,0.421875 -1.54688,0.140625 -2.8125,0.28125 -0.70313,1.828125 -1.26563,3.234375 -0.5625,1.40625 -1.19531,2.8125 -0.63281,1.40625 -1.19531,2.882813 -0.5625,1.40625 -1.05469,3.164062 -0.84375,1.265625 -1.40625,2.460938 -0.5625,1.125 -0.91406,2.601562 -1.05469,1.195313 -1.54688,2.601563 -0.42187,1.40625 -0.77343,2.390625 l -0.28125,1.054687 q -0.49219,0.492187 -0.63282,0.773437 -0.0703,0.28125 -0.35156,0.632813 -0.21094,0.914062 -0.5625,1.757812 -0.14062,0.351563 -0.28125,0.773438 -0.14062,0.351562 -0.0703,0.5625 -0.14063,0.773437 -0.42188,1.195312 0,0.421875 -0.0703,0.8437505 -0.0703,0.421875 -0.14062,0.84375 -0.14063,0.4921875 -0.21094,0.9140625 -0.0703,0.3515625 0.0703,0.703125 0.21094,0.28125 0.42188,0.5625 0.21093,0.28125 0.35156,0.703125 0.14062,0.140625 0.35156,0.2109375 0.21094,0.070312 0.35156,0.2109375 0.5625,0.4921875 1.05469,0.5625 l 0.70313,0.84375 q 0.42187,2.53125 -0.77344,3.9375 -1.26563,1.6171875 -4.21875,1.6171875 L 552.92187,1.40625 q -0.49218,-0.4921875 -0.5625,-0.6328125 -0.63281,-0.28125 -1.05468,-0.4921875 -0.42188,-0.140625 -0.77344,-0.6328125 -0.14063,-0.140625 -0.35156,-0.140625 -0.21094,-0.0703125 -0.35157,-0.2109375 -0.70312,-0.2109375 -1.125,-0.4921875 l -0.77343,-0.421875 Q 548,-2.3203125 548,-2.6015625 547.4375,-3.375 547.08594,-4.2890625 546.80469,-5.203125 546.59375,-6.1875 q -0.21094,-0.7734375 -0.42188,-1.40625 -0.14062,-0.6328125 -0.49218,-1.125 -0.14063,-4.921875 0.91406,-8.226562 1.05469,-3.375 2.32031,-6.539063 0.70313,-1.6875 1.33594,-3.445312 0.63281,-1.757813 1.125,-3.585938 l 0.77344,-0.773437 q 0.49218,-0.421875 0.63281,-0.492188 0,-0.914062 0.35156,-1.757812 0.35156,-0.914063 0.77344,-1.828125 0.28125,-0.5625 0.49219,-1.125 0.28125,-0.5625 0.35156,-0.984375 -0.49219,0 -0.91406,0.07031 -0.35157,0 -0.77344,0.07031 -0.91406,0.210937 -1.75781,0.210937 -0.63282,0 -0.91407,-0.07031 -0.5625,0.28125 -1.05468,0.351562 -0.49219,0 -0.98438,0 h -0.84375 -0.84375 q -0.84375,0 -1.33594,0.210938 -0.98437,0 -1.26562,0 -0.28125,0 -0.63281,0 h -0.84375 -0.84375 q -0.5625,0 -1.26563,-0.07031 -0.70312,-0.140625 -1.47656,-0.5625 l -0.49219,-0.5625 q -0.42187,-0.773437 -0.77344,-0.84375 l -0.77343,-0.210937 z" stroke-width="0" stroke-linejoin="miter" stroke-miterlimit="2" fill="#52b141" stroke="#52b141" transform="translate(0 358.04688) translate(587.8018099999998 -55.04688000000001) scale(3) translate(-535.41406 52.52344)"></path>
      </g>
      <image xlink:href="" id="icon" x="0" y="0" style="display: none;"></image>
    </g>
  </g>
</svg>