<svg xmlns:dc="http://purl.org/dc/elements/1.1/" xmlns:cc="http://creativecommons.org/ns#" xmlns:rdf="http://www.w3.org/1999/02/22-rdf-syntax-ns#" xmlns:svg="http://www.w3.org/2000/svg" xmlns="http://www.w3.org/2000/svg" xmlns:xlink="http://www.w3.org/1999/xlink" id="svg10463" viewBox="0 0 1024 768" height="768px" width="1024px" version="1.1">
  <metadata id="metadata10469">
    <rdf:rdf>
      <cc:work rdf:about="">
        <dc:format>image/svg+xml</dc:format>
        <dc:type rdf:resource="http://purl.org/dc/dcmitype/StillImage"></dc:type>
      </cc:work>
    </rdf:rdf>
  </metadata>
  <defs id="defs10467"></defs>
  <linearGradient spreadMethod="pad" y2="30%" x2="-10%" y1="120%" x1="30%" id="3d_gradient2-logo-e488ad72-a7a0-4c54-8545-8679547dff2a">
    <stop id="stop10444" stop-opacity="1" stop-color="#ffffff" offset="0%"></stop>
    <stop id="stop10446" stop-opacity="1" stop-color="#000000" offset="100%"></stop>
  </linearGradient>
  <linearGradient gradientTransform="rotate(-30)" spreadMethod="pad" y2="30%" x2="-10%" y1="120%" x1="30%" id="3d_gradient3-logo-e488ad72-a7a0-4c54-8545-8679547dff2a">
    <stop id="stop10449" stop-opacity="1" stop-color="#ffffff" offset="0%"></stop>
    <stop id="stop10451" stop-opacity="1" stop-color="#cccccc" offset="50%"></stop>
    <stop id="stop10453" stop-opacity="1" stop-color="#000000" offset="100%"></stop>
  </linearGradient>
  <g id="logo-group">
    <image xlink:href="" id="container" x="272" y="144" width="480" height="480" style="display: none;" transform="translate(0 0)"></image>
    <g id="logo-center" transform="translate(5.684341886080802e-14 0)">
      <image xlink:href="" id="icon_container" x="0" y="0" style="display: none;"></image>
      <g id="slogan" style="font-style:normal;font-weight:100;font-size:32px;line-height:1;font-family:'Exo 2';font-variant-ligatures:none;text-align:center;text-anchor:middle" transform="translate(0 0)"></g>
      <g id="title" style="font-style:normal;font-weight:normal;font-size:72px;line-height:1;font-family:'Brandmark Script 1 Shadow';font-variant-ligatures:normal;text-align:center;text-anchor:middle" transform="translate(0 0)">
        <g id="path10472" aria-label="T" transform="translate(0 350.49578389) translate(369.1240853900001 -24.916750779999987) scale(2.86) translate(-465.66737 40.277823)"> <path class="c1" d="M113.72755,83.4967c0.64844-1.0083,0.71973-2.3042,0.43262-3.38428 c-0.14453-0.35986-0.36035-0.86426-0.7207-1.29639c-0.07227-0.07178-0.28809-0.14404-0.43164-0.07178 c-0.07227,0.07178,0,0.14404,0,0.50391c0,1.0083-0.86426,1.29639-1.65625,1.44043 c-5.68848,0.64795-9.2168-0.14404-14.76172-0.36035c-0.14355,0-0.21582,0.14404-0.28809,0.07227 c0-0.07227-0.43164-0.14404-0.50391-0.14404c-4.17578-0.28809-8.49609,0.50391-9.93652,4.89648 c-0.36035,1.15186-0.14453,2.3042,0.28809,3.16797c0.14355,0.21631,0.50391,0.57617,0.71973,0.50439 c0.07227-0.07227,0-0.36035,0-0.57617c0-0.79199,0.21582-1.58398,0.64844-2.16016c0.64746-0.93604,2.16016-1.65625,3.52832-1.65625 c1.64362-0.11743,3.89697,0.20459,6.34778,0.60443c-0.0733,0.44873-0.1925,0.87018-0.3526,1.34399 c-0.84961,2.51428-2.29913,5.28149-3.04303,6.90851c-0.57617,1.22412-1.22461,2.37598-1.65625,3.67236 c-0.14355,0.2876-0.36035,0.57568-0.50391,0.86377c-0.07227,0.21631-0.07227,0.50391-0.21582,0.64795 c-0.14453,0.21631-0.2168,0.36035-0.2168,0.57617c-0.07129,0.21631-0.21582,0.21631-0.21582,0.50391 c0,0.21631-0.28809,0.64844-0.35938,0.86426c-0.14453,0.28809-0.28809,0.57617-0.36035,0.86426 c-1.44043,4.39209-2.5177,8.492-1.14954,14.1087c0.07129,0.21582,0.21582,0.50391,0.28809,0.79199 c0,0.28809,0.14355,0.50391,0.28809,0.72021c0.14355,0.21582,0.35938,0.35986,0.43164,0.57568c0,0.21631,0,0.28809,0.14355,0.57617 c0.07227,0.21582,0.36035,0.35986,0.50488,0.57617c0.35938,0.50391,1.00781,0.93604,1.87207,0.93604 c0.21582,0,0.57617-0.07227,0.57617-0.28809s-0.36035-0.50391-0.50488-1.0083c-0.93555-2.5918-0.50391-6.84033,0.50488-9.2168 c0.14355-0.2876,0.21582-0.57568,0.28711-0.86377c0.07227-0.07227,0.28809-0.57617,0.2168-0.64795 c-0.07227-0.14404,0.14355-0.36035,0.21582-0.57617c0.07227-0.07227,0.21582-0.36035,0.43164-0.86426 c0.50391-1.2959,2.87805-6.11603,3.16614-6.61993c0.07227-0.14404,0.07227-0.43213,0.28809-0.50391 c1.76068-3.0285,3.85242-7.69208,3.86224-7.71234c0.8634-1.77557,1.43011-3.62238,1.35889-5.32983 c2.15985,0.26166,4.23309,0.37701,5.95587,0.11127C111.00594,85.76977,112.6169,85.05883,113.72755,83.4967z" transform="translate(379.988065 -118.99213)" stroke-width="0" stroke-linejoin="miter" stroke-miterlimit="2" fill="#8dbf37" stroke="#8dbf37"></path> <linearGradient id="a1dda709-e771-477e-a770-485ec23c0a91" gradientUnits="userSpaceOnUse" x1="107.57075" y1="73.65453" x2="93.20205" y2="107.23717"> <stop offset="0.33038" style="stop-color:#53a83e"></stop> <stop offset="0.50775" style="stop-color:#53a83e;stop-opacity:0.68377"></stop> <stop offset="0.89126" style="stop-color:#53a83e;stop-opacity:0"></stop> </linearGradient> <path class="highlight" fill="url(#a1dda709-e771-477e-a770-485ec23c0a91)" d="M97.3937,85.03716c-0.0733,0.44873-0.1925,0.87018-0.3526,1.34393 c-0.84961,2.51434-2.29919,5.28149-3.04303,6.90857c-0.57617,1.22412-1.22461,2.37598-1.65625,3.67236 c-0.14355,0.2876-0.36035,0.57568-0.50391,0.86377c-0.07227,0.21631-0.07227,0.50391-0.21582,0.64795 c-0.14453,0.21631-0.2168,0.36035-0.2168,0.57617c-0.07129,0.21631-0.21582,0.21631-0.21582,0.50391 c0,0.21631-0.28809,0.64844-0.35938,0.86426c-0.14453,0.28809-0.28809,0.57617-0.36035,0.86426 c-1.44043,4.39209-2.51771,8.49197-1.14954,14.10867c0.07129,0.21582,0.21582,0.50391,0.28809,0.79199 c0,0.28809,0.14355,0.50391,0.28809,0.72021c0.14355,0.21582,0.35938,0.35986,0.43164,0.57568c0,0.21631,0,0.28809,0.14355,0.57617 c0.07227,0.21582,0.36035,0.35986,0.50488,0.57617c0.35938,0.50391,1.00781,0.93604,1.87207,0.93604 c0.21582,0,0.57617-0.07227,0.57617-0.28809s-0.36035-0.50391-0.50488-1.0083c-0.93555-2.5918-0.50391-6.84033,0.50488-9.2168 c0.14355-0.2876,0.21582-0.57568,0.28711-0.86377c0.07227-0.07227,0.28809-0.57617,0.2168-0.64795 c-0.07227-0.14404,0.14355-0.36035,0.21582-0.57617c0.07227-0.07227,0.21582-0.36035,0.43164-0.86426 c0.50391-1.2959,2.87806-6.11599,3.16615-6.6199c0.07227-0.14404,0.07227-0.43213,0.28809-0.50391 c1.76068-3.0285,3.85242-7.69208,3.86224-7.71234c0.8634-1.77557,1.43011-3.62238,1.35889-5.32983 C101.30605,85.70036,99.29159,85.34679,97.3937,85.03716z" transform="translate(379.988065 -118.99213)" stroke-width="0" stroke-linejoin="miter" stroke-miterlimit="2" opacity="0.8"></path> <radialGradient id="da1175fc-24af-414f-8787-254a21531089" cx="104.92852" cy="108.18773" r="37.79436" gradientUnits="userSpaceOnUse" transform="translate(379.988065 -118.99213)"> <stop offset="0" style="stop-color:#53a83e;stop-opacity:0"></stop> <stop offset="0.61836" style="stop-color:#53a83e;stop-opacity:0"></stop> <stop offset="0.81312" style="stop-color:#53a83e"></stop> </radialGradient> <path class="highlight" fill="url(#da1175fc-24af-414f-8787-254a21531089)" d="M111.99187,83.66093c1.12793-1.04852,2.23828-3.8418,1.10352-4.92322 c-0.0293,0.00452-0.06177-0.00647-0.08765,0.00653c-0.07227,0.07178,0,0.14404,0,0.50391c0,1.0083-0.86426,1.29639-1.65625,1.44043 c-4.25757,0.48499-7.30566,0.16327-10.89453-0.12l0,0c-5.97695-0.36409-9.94287,0.28204-12.33105,2.75073 c-1.8772,1.94055-1.93188,4.36041-1.25684,5.50598c0.07227-0.07227,0-0.36035,0-0.57617c0-0.79199,0.21582-1.58398,0.64844-2.16016 c0.64746-0.93604,2.16016-1.65625,3.52832-1.65625c2.40015-0.17151,6.09888,0.59283,9.81763,1.17004v-0.00079 C104.94524,85.86906,109.89983,85.60582,111.99187,83.66093z" transform="translate(379.988065 -118.99213)" stroke-width="0" stroke-linejoin="miter" stroke-miterlimit="2" opacity="0.8"></path> </g>
        <g id="path10474" aria-label="e" transform="translate(0 350.49578389) translate(410.8276901900001 21.088702999999995) scale(2.86) translate(-480.24905 24.192)"> <path class="c1" d="M92.4241,105.21693c-0.93555,2.37646-1.58398,4.96826-1.36816,7.56006 c0,4.17676,2.80859,6.625,6.26465,6.625c1.15192,0,3.28119-0.35712,5.81122-2.68658c0.25952-0.22662,0.5152-0.4577,0.76678-0.69318 c0.10327-0.09668,0.17914-0.19885,0.2699-0.30267c0.11566-0.1322,0.27753-0.24207,0.41272-0.35394 c0.19501-0.15668,0.41321-0.32703,0.57391-0.52173c0.07721-0.0929,0.13727-0.20288,0.14587-0.32678 c0.07361,0.00488,0.14587-0.00702,0.21332-0.03284c0.17413-0.06891,0.24768-0.24945,0.33606-0.39752 c0.10419-0.1756,0.25995-0.13947,0.38501-0.2876c0.25153-0.29285,2.48395-1.99713,2.73157-3.54169 c0.09912-0.61829-0.17358-1.65649-1.33929-1.93402c-0.27167,0.72137-1.79071,2.54181-4.01196,4.58832 c-1.89575,1.74646-4.10406,3.78534-5.82965,3.71405c-2.42456-0.10022-2.60144-2.22675-2.40796-4.01294 c0.05853-0.54047,0.24457-1.25812,0.49255-2.026c1.31628-0.42072,3.69324-1.3385,6.11603-3.14563 c3.13092-2.33539,3.91394-3.67432,4.68604-6.01733c0.1817-0.55127,0.22504-1.60785,0.22504-2.18353 c0.07227-0.57617,0-0.93604-0.57617-1.36816c-0.36035-0.28809-2.52051-1.80029-3.0957-2.16016 c-0.7207-0.36035-1.36816-0.93604-2.23242-0.93604c-0.93652,0-1.87207,0.79199-2.44824,1.36768 C95.88113,98.52016,93.64871,101.83266,92.4241,105.21693z M105.09793,99.45619c0.21582,0.21582-0.117,0.9339-0.26154,1.29376 c-0.84662,1.55341-3.24084,3.93329-5.55597,5.13538c-0.62604,0.32501-1.20386,0.4989-1.73944,0.64667 c0.17566-0.3382,0.33185-0.60596,0.45129-0.76672C99.58084,103.62782,104.11624,98.71992,105.09793,99.45619z" transform="translate(389.234731 -118.96802)" stroke-width="0" stroke-linejoin="miter" stroke-miterlimit="2" fill="#8dbf37" stroke="#8dbf37"></path> <linearGradient id="e5dd58ed-58b2-4ed7-8ac8-127bd014e864" gradientUnits="userSpaceOnUse" x1="91.21967" y1="104.33775" x2="109.11127" y2="107.11261"> <stop offset="0.19621" style="stop-color:#53a83e"></stop> <stop offset="0.61474" style="stop-color:#53a83e;stop-opacity:0.22835"></stop> <stop offset="0.7386" style="stop-color:#53a83e;stop-opacity:0"></stop> </linearGradient> <path class="highlight" fill="url(#e5dd58ed-58b2-4ed7-8ac8-127bd014e864)" d="M106.55647,101.3818c-0.60242-0.21936-1.18817-0.4118-1.82452-0.46521 c-0.91711,1.55261-3.21454,3.80719-5.45154,4.96875c-0.62604,0.32501-1.20386,0.4989-1.73944,0.64667 c-0.51666,0.99463-1.20514,2.61444-1.67035,4.05487c1.31635-0.42072,3.69324-1.3385,6.11603-3.14563 c3.13098-2.33539,3.91394-3.67432,4.6861-6.01733c0.00024-0.00067,0.00031-0.00177,0.00055-0.00244 C106.63466,101.4078,106.59444,101.39565,106.55647,101.3818z" transform="translate(389.234731 -118.96802)" stroke-width="0" stroke-linejoin="miter" stroke-miterlimit="2" opacity="0.8"></path> <radialGradient id="9a6ac7ee-d539-4451-b868-50f7e25c20bf" cx="111.7691" cy="100.63885" r="27.83636" gradientUnits="userSpaceOnUse" transform="translate(389.234731 -118.96802)"> <stop offset="0" style="stop-color:#53a83e;stop-opacity:0"></stop> <stop offset="0.61314" style="stop-color:#53a83e;stop-opacity:0"></stop> <stop offset="0.94587" style="stop-color:#53a83e"></stop> </radialGradient> <path class="highlight" fill="url(#9a6ac7ee-d539-4451-b868-50f7e25c20bf)" d="M95.37807,112.61282c0.20575-1.89886,1.95612-5.96204,2.6142-6.84753 c0.53534-0.72028,1.40735-1.75488,2.36322-2.78241c-1.81189-0.72107-3.85223-1.36401-5.67474-2.26282 c-0.92255,1.43109-1.6983,2.9541-2.25659,4.49689c-0.71106,1.80615-1.25366,3.73688-1.37964,5.6972 c0.14209,7.66418,5.9519,7.68298,9.77856,4.4007l0.00079-0.00702c-1.06921,0.79211-2.12177,1.35583-3.03784,1.31799 C95.36153,116.5256,95.18459,114.39907,95.37807,112.61282z" transform="translate(389.234731 -118.96802)" stroke-width="0" stroke-linejoin="miter" stroke-miterlimit="2" opacity="0.8"></path> <linearGradient id="68da1c9f-d085-4ca5-8ac5-6becac7eab4e" gradientUnits="userSpaceOnUse" x1="116.63695" y1="99.15231" x2="100.5349" y2="116.23393"> <stop offset="0.28222" style="stop-color:#53a83e"></stop> <stop offset="0.48449" style="stop-color:#53a83e;stop-opacity:0.68377"></stop> <stop offset="0.92184" style="stop-color:#53a83e;stop-opacity:0"></stop> </linearGradient> <path class="highlight" fill="url(#68da1c9f-d085-4ca5-8ac5-6becac7eab4e)" d="M107.62764,108.32345c-0.27167,0.72137-1.79071,2.54175-4.01196,4.58826 c-1.89569,1.74652-4.10406,3.7854-5.82965,3.71411c-0.38397-0.01587-0.69397-0.09729-0.97266-0.20538 c-0.40759,0.92529-0.83368,1.84131-1.2865,2.7439c0.56879,0.15521,1.1701,0.23767,1.79376,0.23767 c1.15192,0,3.28113-0.35718,5.81116-2.68665c0.25952-0.22662,0.5152-0.4577,0.76678-0.69318 c0.10327-0.09668,0.17914-0.19885,0.2699-0.30267c0.11566-0.1322,0.27753-0.24207,0.41272-0.35394 c0.19501-0.15668,0.41321-0.32703,0.57391-0.52173c0.07721-0.0929,0.13727-0.20288,0.14587-0.32678 c0.07361,0.00488,0.14587-0.00702,0.21332-0.03284c0.17413-0.06891,0.24768-0.24945,0.33606-0.39752 c0.10419-0.1756,0.25995-0.13947,0.38501-0.2876c0.25153-0.29285,2.48395-1.99707,2.73157-3.54163 C109.06606,109.63918,108.79335,108.60098,107.62764,108.32345z" transform="translate(389.234731 -118.96802)" stroke-width="0" stroke-linejoin="miter" stroke-miterlimit="2" opacity="0.8"></path> </g>
        <g id="path10476" aria-label="a" transform="translate(0 350.49578389) translate(454.9737349900001 20.81379122) scale(2.86) translate(-495.68473 24.288123)"> <path class="c1" d="M97.95877,112.99379c-0.00409,1.09198,0.10248,2.16125,0.39014,3.0957 c0.57617,1.87207,1.60162,3.24023,4.04987,3.24023c1.59839,0,2.90771-0.83765,5.21735-2.61432 c0.27313-0.21008,0.5152-0.4577,0.76678-0.69318c0.10327-0.09668,0.17914-0.19885,0.2699-0.30267 c0.11566-0.1322,0.27753-0.24207,0.41272-0.35394c0.19501-0.15668,0.41321-0.32703,0.57391-0.52173 c0.07721-0.0929,0.13727-0.20288,0.14587-0.32678c0.07361,0.00488,0.14587-0.00702,0.21332-0.03284 c0.17413-0.06891,0.24768-0.24945,0.33606-0.39752c0.10419-0.1756,0.25995-0.13947,0.38501-0.2876 c0.25153-0.29285,2.48395-1.99713,2.73157-3.54169c0.09912-0.61829-0.17358-1.65649-1.33929-1.93402 c-0.27167,0.72137-1.79071,2.54181-4.01196,4.58832c-2.11298,1.94666-3.96985,3.58862-4.84552,3.57538 c-3.17212-0.04803,5.17548-14.65448,5.60712-15.44696c0.43164-0.86377,1.44043-2.37598,1.44043-3.31201 c0.07129-0.72021-0.79199-1.08008-1.5127-1.58447c-0.50391-0.35986-2.23242-1.65576-2.87988-1.43994 c-0.39636,0.13208-0.68073,0.41791-0.91278,0.77148c-0.047,0.07159-0.72882,1.14923-1.33765,2.21497 c-1.44672-1.26953-3.72113-2.26624-5.52594-2.26624c-1.22461,0-3.02441,0.79199-4.75293,2.52002 c-1.65625,1.65625-2.73633,3.3125-3.88867,5.32861c-1.43945,2.66406-3.5058,8.10645-2.8291,11.89606 c0.40143,2.24817,1.46729,3.8634,3.28845,4.09119c2.37018,0.29657,4.54889-2.32349,5.51959-3.41193 C96.28018,114.93996,97.14914,113.97487,97.95877,112.99379z M91.35184,116.21022 c-0.64832-0.01904-0.52582-1.29028-0.32416-2.80298c0.26697-2.00208,1.2724-4.44666,2.13666-6.10193 c2.01563-3.81689,2.95691-5.28253,5.04578-6.72296c0.85638-0.58398,1.81653-0.74597,2.56232-0.73663 c0.48334,0.00604,1.03253,0.14362,1.56244,0.36621c-0.77289,1.43829-1.48309,2.58435-2.55341,5.05743 C97.22037,109.79634,92.15506,116.149,91.35184,116.21022z" transform="translate(409.154711 -118.967787)" stroke-width="0" stroke-linejoin="miter" stroke-miterlimit="2" fill="#8dbf37" stroke="#8dbf37"></path> <radialGradient id="bc145da7-0cd0-49ab-a4b4-15f585ba0a18" cx="116.21508" cy="98.02955" r="29.40543" gradientUnits="userSpaceOnUse" transform="translate(409.154711 -118.967787)"> <stop offset="0" style="stop-color:#53a83e;stop-opacity:0"></stop> <stop offset="0.50619" style="stop-color:#53a83e;stop-opacity:0"></stop> <stop offset="0.89473" style="stop-color:#53a83e"></stop> </radialGradient> <path class="highlight" fill="url(#bc145da7-0cd0-49ab-a4b4-15f585ba0a18)" d="M105.34463,115.32882l0.00018-0.00122c-0.89587,0.71027-1.63049,1.16644-2.09027,1.15948 c-3.17212-0.04803,5.17542-14.65442,5.60706-15.4469c0.43164-0.86377,1.44043-2.37598,1.44043-3.31201 c0.07129-0.72021-0.79199-1.08008-1.5127-1.58447c-0.50391-0.35986-2.23242-1.65576-2.87988-1.43994 c-0.3963,0.13202-0.68073,0.41785-0.91278,0.77148c-0.06598,0.10046-1.38574,2.18396-1.99359,3.43378 c-1.24878,2.56775-2.09576,3.47992-3.93292,8.07092c-0.43835,1.09552-0.81244,2.57819-0.99744,4.13086 C98.43771,117.37112,102.0259,118.24892,105.34463,115.32882z" transform="translate(409.154711 -118.967787)" stroke-width="0" stroke-linejoin="miter" stroke-miterlimit="2" opacity="0.8"></path> <linearGradient id="b1953ccf-8c5f-4d50-a4fd-b584ede73e98" gradientUnits="userSpaceOnUse" x1="114.575" y1="101.4597" x2="104.26183" y2="112.69644"> <stop offset="0.25797" style="stop-color:#53a83e"></stop> <stop offset="0.47882" style="stop-color:#53a83e;stop-opacity:0.68377"></stop> <stop offset="0.95634" style="stop-color:#53a83e;stop-opacity:0"></stop> </linearGradient> <path class="highlight" fill="url(#b1953ccf-8c5f-4d50-a4fd-b584ede73e98)" d="M112.11196,108.32345c-0.27167,0.72137-1.79065,2.54175-4.0119,4.58826 c-1.00354,0.92456-1.94495,1.7735-2.75525,2.41589l-0.00018,0.00122c-3.31873,2.9201-6.90692,2.0423-7.27191-4.21802 c-0.2038,1.71063-0.17688,3.50696,0.27618,4.9787c0.57617,1.87207,1.60168,3.24023,4.04993,3.24023 c1.59833,0,2.90765-0.83765,5.21735-2.61438c0.27307-0.21008,0.5152-0.4577,0.76678-0.69318 c0.10327-0.09668,0.17914-0.19885,0.2699-0.30267c0.11566-0.1322,0.27753-0.24207,0.41272-0.35394 c0.19501-0.15668,0.41321-0.32703,0.57391-0.52173c0.07721-0.0929,0.13727-0.20288,0.14587-0.32678 c0.07361,0.00488,0.14587-0.00702,0.21332-0.03284c0.17413-0.06891,0.24768-0.24945,0.33606-0.39752 c0.10419-0.1756,0.25995-0.13947,0.38501-0.2876c0.25153-0.29285,2.48389-1.99707,2.73151-3.54163 C113.55038,109.63918,113.27767,108.60098,112.11196,108.32345z" transform="translate(409.154711 -118.967787)" stroke-width="0" stroke-linejoin="miter" stroke-miterlimit="2" opacity="0.8"></path> <radialGradient id="8a13515d-0671-4d5b-a46d-3e03ddfbea88" cx="103.25879" cy="99.48936" r="5.5485" gradientTransform="matrix(0.6646 0.7472 -0.52164 0.46397 86.52992 -23.82578)" gradientUnits="userSpaceOnUse" transform="translate(409.154711 -118.967787)"> <stop offset="0.19774" style="stop-color:#53a83e"></stop> <stop offset="1" style="stop-color:#53a83e;stop-opacity:0"></stop> </radialGradient> <path class="highlight" fill="url(#8a13515d-0671-4d5b-a46d-3e03ddfbea88)" d="M108.78933,96.1437c-0.50391-0.35986-2.23242-1.65576-2.87988-1.43994 c-0.3963,0.13202-0.68073,0.41785-0.91278,0.77148c-0.047,0.07153-0.72888,1.14923-1.33765,2.21497 c0.44299,0.38873,0.81543,0.80109,1.06403,1.2207c0.61346,1.03546,0.13605,2.5614-0.22186,3.14795 c-0.31934-0.7583-1.21082-1.44556-2.16644-1.84692c-0.59692,1.11169-1.15631,2.04846-1.87225,3.55347 c1.95795,0.60706,3.42047,2.40436,5.30707,3.07794c1.46808-2.93701,2.91864-5.48486,3.09204-5.80316 c0.43164-0.86377,1.44043-2.37598,1.44043-3.31201C110.37331,97.00796,109.51003,96.64809,108.78933,96.1437z" transform="translate(409.154711 -118.967787)" stroke-width="0" stroke-linejoin="miter" stroke-miterlimit="2" opacity="0.8"></path> <radialGradient id="32853b80-415f-4418-a9af-5570eefb3430" cx="110.81117" cy="91.27599" r="38.00396" gradientUnits="userSpaceOnUse" transform="translate(409.154711 -118.967787)"> <stop offset="0" style="stop-color:#53a83e;stop-opacity:0"></stop> <stop offset="0.61564" style="stop-color:#53a83e;stop-opacity:0"></stop> <stop offset="0.92689" style="stop-color:#53a83e"></stop> </radialGradient> <path class="highlight" fill="url(#32853b80-415f-4418-a9af-5570eefb3430)" d="M104.72305,98.91091c-1.06061-1.79016-4.23254-3.48694-6.58997-3.48694 c-1.22461,0-3.02441,0.79199-4.75293,2.52002c-1.65625,1.65625-2.73633,3.3125-3.88867,5.32861 c-0.9375,1.73505-2.13635,4.64807-2.67468,7.51593c-0.27832,7.03442,2.94727,7.35919,5.37274,4.79596l0.00073-0.00183 c-0.39545,0.38818-0.69037,0.61627-0.83844,0.62756c-0.64832-0.0191-0.52582-1.29034-0.32416-2.80298 c0.26697-2.00208,1.2724-4.44666,2.13666-6.10193c2.01563-3.81689,2.95691-5.28259,5.04578-6.72302 c0.85638-0.58392,1.81653-0.74597,2.56232-0.73663c1.35492,0.01703,3.23236,1.03442,3.72876,2.2132 C104.85909,101.47231,105.33651,99.94637,104.72305,98.91091z" transform="translate(409.154711 -118.967787)" stroke-width="0" stroke-linejoin="miter" stroke-miterlimit="2" opacity="0.8"></path> <linearGradient id="c3a9ed16-6f4c-43ee-ae3b-9277cbb3edd1" gradientUnits="userSpaceOnUse" x1="104.66223" y1="110.77654" x2="88.99965" y2="113.23929"> <stop offset="0.21023" style="stop-color:#53a83e"></stop> <stop offset="0.43527" style="stop-color:#53a83e;stop-opacity:0.68377"></stop> <stop offset="0.92184" style="stop-color:#53a83e;stop-opacity:0"></stop> </linearGradient> <path class="highlight" fill="url(#c3a9ed16-6f4c-43ee-ae3b-9277cbb3edd1)" d="M86.8168,110.78854c-0.28827,1.53564-0.39038,3.05853-0.15442,4.38007 c0.40149,2.24823,1.46729,3.8634,3.28845,4.09125c2.37018,0.29651,4.54889-2.32355,5.51965-3.41193 c0.80975-0.90796,1.67865-1.87305,2.48828-2.85413c0.00824-2.18896,0.4967-4.47766,1.11139-6.01385 c0.26135-0.65314,0.49677-1.21021,0.72186-1.72894c-2.08679,3.6944-5.84937,8.61176-7.60175,10.33167l-0.00073,0.00183 C89.76406,118.14773,86.53848,117.82296,86.8168,110.78854z" transform="translate(409.154711 -118.967787)" stroke-width="0" stroke-linejoin="miter" stroke-miterlimit="2" opacity="0.8"></path> </g>
        <g id="path10478" aria-label="c" transform="translate(0 350.49578389) translate(525.6967873899998 20.960460600000005) scale(2.86) translate(-520.41307 24.23684)"> <path class="c1" d="M108.88621,110.25746c0.09912-0.61829-0.17358-1.65649-1.33929-1.93402 c-0.27167,0.72137-1.79065,2.54181-4.0119,4.58832c-2.11298,1.94666-4.67493,3.64337-6.19995,3.64337 c-0.89526,0-1.49841-0.81628-1.49841-2.29126c0-3.04108,2.3277-7.72589,3.13177-9.04694 c1.44043-2.37646,3.24023-4.17676,4.6084-5.11279c0.79199-0.50391,2.44824-0.43213,2.37598,0.64795 c0,0.72021-0.28809,1.36816-0.71973,1.87256c-0.36035,0.50391-1.2959,1.43994-1.08008,1.58398 c0.21582,0.21582,1.44043-0.72021,1.7998-1.0083c0.86426-0.79199,1.65625-1.94385,2.16016-3.02393 c0.50391-1.29639-0.57617-2.88037-3.02441-4.39258c-2.30371-1.36816-3.67188-1.22412-5.04004-0.57617 c-1.94434,0.93604-3.3125,2.66455-4.46387,4.46436c-1.5127,2.37646-2.66504,4.96875-3.38477,7.20068 c-0.71973,2.16016-1.44043,4.89648-0.93652,7.05664c0.51428,3.41693,3.07043,5.40039,5.70544,5.40039 c1.61188,0,3.34033-0.58643,6.08234-2.61432c0.27704-0.2049,0.5152-0.4577,0.76678-0.69318 c0.10327-0.09668,0.17914-0.19885,0.2699-0.30267c0.11566-0.1322,0.27753-0.24207,0.41272-0.35394 c0.19501-0.15668,0.41321-0.32703,0.57391-0.52173c0.07721-0.0929,0.13727-0.20288,0.14587-0.32678 c0.07361,0.00488,0.14587-0.00702,0.21332-0.03284c0.17413-0.06891,0.24768-0.24945,0.33606-0.39752 c0.10419-0.1756,0.25995-0.13947,0.38501-0.2876C106.40623,113.5063,108.63859,111.80202,108.88621,110.25746z" transform="translate(429.318007 -118.967689)" stroke-width="0" stroke-linejoin="miter" stroke-miterlimit="2" fill="#8dbf37" stroke="#8dbf37"></path> <radialGradient id="ca93215a-cb82-4313-aea8-c1539c58580c" cx="120.67349" cy="91.70439" r="44.02841" gradientUnits="userSpaceOnUse" transform="translate(429.318007 -118.967689)"> <stop offset="0" style="stop-color:#53a83e;stop-opacity:0"></stop> <stop offset="0.58942" style="stop-color:#53a83e;stop-opacity:0"></stop> <stop offset="0.87303" style="stop-color:#53a83e"></stop> </radialGradient> <path class="highlight" fill="url(#ca93215a-cb82-4313-aea8-c1539c58580c)" d="M100.44033,115.32302l0.00085-0.00757c-1.17957,0.74744-2.29169,1.23969-3.10608,1.23969 c-0.89532,0-1.49847-0.81628-1.49847-2.29126c0-3.04114,2.32776-7.72589,3.13184-9.04694 c1.44043-2.37646,3.24023-4.17676,4.6084-5.11279c0.79199-0.50391,2.44824-0.43213,2.37598,0.64795 c0,0.72021-0.28809,1.36816-0.71973,1.87256c-0.36035,0.50391-1.2959,1.43994-1.08008,1.58398 c0.21582,0.21582,1.44043-0.72021,1.7998-1.0083c0.86426-0.79199,1.65625-1.94385,2.16016-3.02393 c0.50391-1.29639-0.57617-2.88037-3.02441-4.39258c-2.30371-1.36816-3.67188-1.22412-5.04004-0.57617 c-1.94434,0.93604-3.3125,2.66455-4.46387,4.46436c-1.5127,2.37646-2.66504,4.96875-3.38477,7.20068 c-0.42676,1.28088-0.8476,2.76367-1.01953,4.20947l0.00085-0.00146C91.73544,117.30727,96.4764,118.2394,100.44033,115.32302z" transform="translate(429.318007 -118.967689)" stroke-width="0" stroke-linejoin="miter" stroke-miterlimit="2" opacity="0.8"></path> <linearGradient id="e66566c1-e655-4ba0-9bef-c80fcf74018a" gradientUnits="userSpaceOnUse" x1="116.92879" y1="98.2319" x2="98.56144" y2="119.17068"> <stop offset="0.3211" style="stop-color:#53a83e"></stop> <stop offset="0.51931" style="stop-color:#53a83e;stop-opacity:0.68377"></stop> <stop offset="0.94787" style="stop-color:#53a83e;stop-opacity:0"></stop> </linearGradient> <path class="highlight" fill="url(#e66566c1-e655-4ba0-9bef-c80fcf74018a)" d="M107.54691,108.32344c-0.27167,0.72137-1.79065,2.54181-4.0119,4.58832 c-1.91919,1.76813-4.20032,3.31549-5.74689,3.5871c-0.39343,0.93304-0.78534,1.86615-1.18195,2.79688 c0.12128,0.00842,0.24078,0.034,0.36261,0.034c1.61188,0,3.34033-0.58643,6.08234-2.61432 c0.27704-0.2049,0.5152-0.4577,0.76678-0.69318c0.10327-0.09668,0.17914-0.19885,0.2699-0.30267 c0.11566-0.1322,0.27753-0.24207,0.41272-0.35394c0.19501-0.15668,0.41321-0.32703,0.57391-0.52173 c0.07721-0.0929,0.13727-0.20288,0.14587-0.32678c0.07361,0.00488,0.14587-0.00702,0.21332-0.03284 c0.17413-0.06891,0.24768-0.24945,0.33606-0.39752c0.10419-0.1756,0.25995-0.13947,0.38501-0.2876 c0.25153-0.29285,2.48389-1.99713,2.73151-3.54169C108.98533,109.63918,108.71262,108.60097,107.54691,108.32344z" transform="translate(429.318007 -118.967689)" stroke-width="0" stroke-linejoin="miter" stroke-miterlimit="2" opacity="0.8"></path> </g>
        <g id="path10480" aria-label="h" transform="translate(0 350.49578389) translate(570.0236699899998 -21.12489699999999) scale(2.86) translate(-535.91198 38.952)"> <path class="c1" d="M91.60294,111.18163c0.0191-0.05716,0.06912-0.20943,0.13763-0.41831 c1.74052-1.72051,4.59335-4.29491,5.13946-4.74567c0.08169-0.0607,0.11256-0.2747,0.26482-0.32522 c0.08174-0.06119,0.23499-0.11158,0.31582-0.17295c0.24524-0.18259,0.5713-0.42648,0.82588-0.68075 c0.48865-0.36591,0.98846-0.80276,1.47704-1.16872c0.2492-0.16167,0.75682-0.55099,1.36021-1.03178 c-0.44576,1.1184-0.88444,2.23466-1.26797,3.1612c-0.57589,1.51194-1.00731,2.95067-1.51194,4.75055 c-0.28794,1.07954-0.3592,2.01462-0.43143,2.51827c0,1.58319,0.14349,2.44701,0.36018,3.0229 c0.14348,0.57588,0.50365,1.29525,0.93507,1.72765c0.14446,0.14349,0.36018,0.28794,0.50365,0.50365 c0.07223,0.07224,0.64812,0.21571,0.57588,0.28794c0,0.3096,1.51572,0.81161,2.57476,0.81161 c3.30328,0,4.93571-1.62132,6.11291-2.70525c0.25939-0.22651,0.51495-0.45747,0.7664-0.69283 c0.10322-0.09663,0.17905-0.19875,0.26976-0.30252c0.11561-0.13213,0.27739-0.24194,0.41251-0.35377 c0.19492-0.1566,0.413-0.32686,0.57363-0.52147c0.07717-0.09285,0.1372-0.20277,0.1458-0.32661 c0.07357,0.00488,0.14581-0.00702,0.21321-0.03282c0.17405-0.06888,0.24756-0.24933,0.33589-0.39732 c0.10413-0.17551,0.25982-0.1394,0.38482-0.28745c0.2514-0.2927,2.4827-1.99613,2.7302-3.53992 c0.09907-0.61797-0.1735-1.65566-1.33862-1.93305c-0.27154,0.72102-1.78982,2.54053-4.00996,4.58602 c-2.11192,1.94568-3.82164,3.57359-5.23304,3.57359c-1.7548,0-1.0469-2.93805-0.67075-3.97872 c1.28738-3.56139,4.03887-7.89089,5.15306-10.45272c0.28794-0.71985,0.71937-1.79939,0.93606-2.87893 c0.28794-1.79939-0.93606-2.44701-2.08783-3.16638c-0.43142-0.28794-0.93507-0.50414-1.36748-0.79208 c-0.45357-0.25524-1.04366-0.14043-1.50327,0.28556c-0.33266,0.30826-0.62878,0.7514-0.89244,1.2151 c-1.14359,0.88804-2.77516,2.18445-3.50563,2.8175c-1.44392,1.20368-4.42564,3.55236-6.73924,5.78885 c0.86889-2.33471,3.12064-7.741,4.50794-10.6824c1.4397-3.16688,3.4553-6.40549,3.4553-9.50013 c0-1.94337-1.79988-3.52656-2.59148-4.10244c-0.86382-0.64762-1.72668-1.0078-2.44701-1.0078 c-0.57589,0-0.93508,0.2162-0.93508,0.43192c-0.07223,0.28794,0.21571,0.28794,0.43143,0.86382 c0.14445,0.28794,0.14445,0.86383,0.14445,1.22351c-0.28794,3.8145-4.53484,12.09112-5.83009,15.40147 c-1.22302,2.87893-3.0229,8.13264-3.95798,11.37126c-0.7916,2.80718-1.4397,5.2542-1.00829,7.19756 c0.36018,1.58319,2.08783,2.87844,3.8145,2.87844c0.50463,0,1.00829-0.14445,1.29623-0.57588 c0.14349-0.28794-0.64811-0.57588-0.36017-2.2313C90.12937,115.79657,90.81982,113.52946,91.60294,111.18163z" transform="translate(450.737845 -118.98601)" stroke-width="0" stroke-linejoin="miter" stroke-miterlimit="2" fill="#8dbf37" stroke="#8dbf37"></path> <radialGradient id="2c87054b-7c40-45e6-9939-388fa005619d" cx="130.25377" cy="87.78134" r="44.43444" gradientUnits="userSpaceOnUse" transform="translate(450.737845 -118.98601)"> <stop offset="0" style="stop-color:#53a83e;stop-opacity:0"></stop> <stop offset="0.67039" style="stop-color:#53a83e;stop-opacity:0"></stop> <stop offset="1" style="stop-color:#53a83e"></stop> </radialGradient> <path class="highlight" fill="url(#2c87054b-7c40-45e6-9939-388fa005619d)" d="M106.42942,115.53169c-0.80898,0.58638-1.54354,0.95686-2.20898,0.95686 c-1.7548,0-1.0469-2.93804-0.67075-3.97866c1.28738-3.56139,4.03887-7.89095,5.15306-10.45271 c0.28794-0.71986,0.71937-1.79939,0.93606-2.87893c0.28794-1.79939-0.93606-2.44702-2.08783-3.16638 c-0.43142-0.28794-0.93507-0.50414-1.36748-0.79208c-0.45357-0.25525-1.04366-0.14043-1.50327,0.2855 c-0.72376,0.67075-1.28238,1.97398-1.68416,2.75826c-0.90098,1.75883-2.19257,5.23408-3.14533,7.5359 c-0.57589,1.51193-1.00731,2.95067-1.51194,4.75055c-0.04459,0.16715-0.07571,0.32272-0.11073,0.48187 C97.36249,116.67573,103.13322,118.32717,106.42942,115.53169z" transform="translate(450.737845 -118.98601)" stroke-width="0" stroke-linejoin="miter" stroke-miterlimit="2" opacity="0.8"></path> <linearGradient id="093101f2-00e7-4f68-98d3-06d0bebee820" gradientUnits="userSpaceOnUse" x1="120.90098" y1="101.04939" x2="104.71865" y2="115.43367"> <stop offset="0.26737" style="stop-color:#53a83e"></stop> <stop offset="0.47434" style="stop-color:#53a83e;stop-opacity:0.68377"></stop> <stop offset="0.92184" style="stop-color:#53a83e;stop-opacity:0"></stop> </linearGradient> <path class="highlight" fill="url(#093101f2-00e7-4f68-98d3-06d0bebee820)" d="M113.46344,108.329c-0.27154,0.72101-1.78982,2.54047-4.00996,4.58596 c-1.1162,1.02835-2.11723,1.95934-3.02406,2.61673c-3.2962,2.79548-5.06164,2.55573-8.16187,0.55947 c0.14348,0.57589,0.50365,1.29525,0.93507,1.72765c0.14446,0.14349,0.36018,0.28794,0.50365,0.50365 c0.07223,0.07223,0.64812,0.21571,0.57588,0.28794c0,0.3096,1.51572,0.81155,2.57476,0.81155 c3.30328,0,4.93571-1.62132,6.11291-2.70525c0.25939-0.22651,0.51495-0.45747,0.7664-0.69283 c0.10322-0.09663,0.17905-0.19875,0.26976-0.30252c0.11561-0.13214,0.27739-0.24195,0.41251-0.35377 c0.19492-0.1566,0.413-0.32687,0.57363-0.52147c0.07717-0.09285,0.1372-0.20278,0.1458-0.32662 c0.07357,0.00488,0.14581-0.00701,0.21321-0.03281c0.17405-0.06888,0.24756-0.24933,0.33589-0.39732 c0.10413-0.17551,0.25982-0.1394,0.38482-0.28745c0.2514-0.2927,2.4827-1.99608,2.7302-3.53986 C114.90113,109.64407,114.62856,108.60638,113.46344,108.329z" transform="translate(450.737845 -118.98601)" stroke-width="0" stroke-linejoin="miter" stroke-miterlimit="2" opacity="0.8"></path> <linearGradient id="4c98f26b-0128-4cb7-9e3f-e7d3c6ac380a" gradientUnits="userSpaceOnUse" x1="82.35738" y1="116.90559" x2="101.81703" y2="100.10787"> <stop offset="0.38917" style="stop-color:#53a83e"></stop> <stop offset="0.55762" style="stop-color:#53a83e;stop-opacity:0.68377"></stop> <stop offset="0.92184" style="stop-color:#53a83e;stop-opacity:0"></stop> </linearGradient> <path class="highlight" fill="url(#4c98f26b-0128-4cb7-9e3f-e7d3c6ac380a)" d="M104.62716,96.07549c-0.95527,0.72028-3.40381,2.64675-4.34499,3.46244 c-1.44392,1.20368-4.42576,3.5523-6.7393,5.78886c-0.00055,0.00146-0.00122,0.00329-0.00177,0.00475 c-0.22017,0.59199-1.39182,4.17083-1.80562,5.43185c1.74052-1.72045,4.59335-4.29503,5.13946-4.74574 c0.08169-0.0607,0.11256-0.2747,0.26482-0.32521c0.08174-0.06119,0.23499-0.11164,0.31582-0.17295 c0.24524-0.18259,0.5713-0.42654,0.82588-0.68075c0.48865-0.36597,0.98846-0.80276,1.47704-1.16873 c0.89536-0.58083,5.07888-4.0562,5.34998-4.4268C105.87763,98.19193,105.64758,96.42401,104.62716,96.07549z" transform="translate(450.737845 -118.98601)" stroke-width="0" stroke-linejoin="miter" stroke-miterlimit="2" opacity="0.8"></path> <linearGradient id="27823988-1b55-4bcf-9e24-a4b88e72cf32" gradientUnits="userSpaceOnUse" x1="87.96164" y1="133.302" x2="93.73552" y2="97.6277"> <stop offset="0.21023" style="stop-color:#53a83e"></stop> <stop offset="0.43527" style="stop-color:#53a83e;stop-opacity:0.68377"></stop> <stop offset="0.92184" style="stop-color:#53a83e;stop-opacity:0"></stop> </linearGradient> <path class="highlight" fill="url(#27823988-1b55-4bcf-9e24-a4b88e72cf32)" d="M90.06265,116.59482c0.06166-0.79825,0.75211-3.06535,1.53519-5.4132 c0.13424-0.40246,1.68661-5.16006,1.94328-5.85004c0.86757-2.33228,3.1215-7.74392,4.50972-10.68719 c1.4397-3.16687,3.4553-6.40549,3.4553-9.50013c0-1.94336-1.79988-3.52655-2.59148-4.10243 c-0.86382-0.64763-1.72668-1.0078-2.44702-1.0078c-0.57588,0-0.93507,0.21619-0.93507,0.43191 c-0.07223,0.28794,0.21571,0.28794,0.43143,0.86383c0.14445,0.28794,0.14445,0.86382,0.14445,1.2235 c-0.28794,3.8145-4.53484,12.09112-5.83009,15.40147c-1.22302,2.87893-3.0229,8.13264-3.95798,11.37126 c-0.7916,2.80719-1.4397,5.2542-1.00829,7.19757c0.36018,1.58319,2.08782,2.87844,3.8145,2.87844 c0.50463,0,1.00829-0.14446,1.29623-0.57588C90.56631,118.53819,89.77471,118.25024,90.06265,116.59482z" transform="translate(450.737845 -118.98601)" stroke-width="0" stroke-linejoin="miter" stroke-miterlimit="2" opacity="0.8"></path> </g>
           </g>
      <image xlink:href="" id="icon" x="0" y="0" style="display: none;"></image>
    </g>
  </g>
</svg>