<svg xmlns:dc="http://purl.org/dc/elements/1.1/" xmlns:cc="http://creativecommons.org/ns#" xmlns:rdf="http://www.w3.org/1999/02/22-rdf-syntax-ns#" xmlns:svg="http://www.w3.org/2000/svg" xmlns="http://www.w3.org/2000/svg" xmlns:xlink="http://www.w3.org/1999/xlink" id="svg4260" viewBox="0 0 1024 768" height="768px" width="1024px" version="1.1">
  <metadata id="metadata4266">
    <rdf:rdf>
      <cc:work rdf:about="">
        <dc:format>image/svg+xml</dc:format>
        <dc:type rdf:resource="http://purl.org/dc/dcmitype/StillImage"></dc:type>
      </cc:work>
    </rdf:rdf>
  </metadata>
  <defs id="defs4264"></defs>
  <linearGradient spreadMethod="pad" y2="30%" x2="-10%" y1="120%" x1="30%" id="3d_gradient2-logo-74b46b91-82e2-485f-8d35-ccaaef8ae41a">
    <stop id="stop4241" stop-opacity="1" stop-color="#ffffff" offset="0%"></stop>
    <stop id="stop4243" stop-opacity="1" stop-color="#000000" offset="100%"></stop>
  </linearGradient>
  <linearGradient gradientTransform="rotate(-30)" spreadMethod="pad" y2="30%" x2="-10%" y1="120%" x1="30%" id="3d_gradient3-logo-74b46b91-82e2-485f-8d35-ccaaef8ae41a">
    <stop id="stop4246" stop-opacity="1" stop-color="#ffffff" offset="0%"></stop>
    <stop id="stop4248" stop-opacity="1" stop-color="#cccccc" offset="50%"></stop>
    <stop id="stop4250" stop-opacity="1" stop-color="#000000" offset="100%"></stop>
  </linearGradient>
  <g id="logo-group">
    <image xlink:href="" id="container" x="272" y="144" width="480" height="480" transform="translate(0 0)" style="display: none;"></image>
    <g id="logo-center" transform="translate(0 0)">
      <image xlink:href="" id="icon_container" x="0" y="0" style="display: none;"></image>
      <g id="slogan" style="font-style:normal;font-weight:300;font-size:32px;line-height:1;font-family:'Fira Sans Condensed';font-variant-ligatures:none;text-align:center;text-anchor:middle" transform="translate(0 0)"></g>
      <g id="title" style="font-style:normal;font-weight:300;font-size:72px;line-height:1;font-family:'Montserrat Light Alt1';font-variant-ligatures:none;text-align:center;text-anchor:middle" transform="translate(0 0)">
        <path id="path4269" style="font-style:normal;font-weight:300;font-size:72px;line-height:1;font-family:'Montserrat Light Alt1';font-variant-ligatures:none;text-align:center;text-anchor:middle" d="M 322.8695,-47.088 V 0 h 3.672 v -47.088 h 18.144 V -50.4 h -39.96 v 3.312 z" stroke-width="0" stroke-linejoin="miter" stroke-miterlimit="2" fill="#42883c" stroke="#42883c" transform="translate(0 307.144) translate(281.211315 53.024) scale(1) translate(-304.7255 50.4)"></path>
        <path id="path4271" style="font-style:normal;font-weight:300;font-size:72px;line-height:1;font-family:'Montserrat Light Alt1';font-variant-ligatures:none;text-align:center;text-anchor:middle" d="m 370.808,-4.248 c -2.088,0.864 -4.392,1.296 -6.768,1.296 -3.888,0 -7.128,-1.008 -9.864,-3.024 -2.736,-2.016 -4.608,-4.752 -5.472,-8.208 l 31.752,-6.192 c -0.216,-3.312 -1.008,-6.264 -2.592,-8.928 -1.584,-2.664 -3.672,-4.752 -6.264,-6.264 -2.592,-1.512 -5.544,-2.304 -8.784,-2.304 -3.528,0 -6.696,0.864 -9.432,2.448 -2.808,1.656 -4.968,3.888 -6.552,6.768 -1.584,2.88 -2.304,6.192 -2.304,9.864 0,3.744 0.792,6.984 2.448,9.864 1.656,2.88 3.96,5.184 6.912,6.768 2.952,1.656 6.264,2.448 10.08,2.448 2.88,0 5.544,-0.504 8.064,-1.512 2.376,-1.008 4.464,-2.52 6.12,-4.608 l -2.088,-2.376 c -1.44,1.8 -3.168,3.096 -5.256,3.96 z m -15.624,-28.44 c 2.232,-1.296 4.752,-2.016 7.632,-2.016 2.448,0 4.752,0.576 6.768,1.656 2.016,1.08 3.6,2.592 4.896,4.392 1.224,1.872 2.016,3.96 2.376,6.192 l -28.656,5.616 c -0.144,-0.936 -0.144,-1.656 -0.144,-2.232 0,-2.952 0.576,-5.688 1.872,-8.064 1.224,-2.376 2.952,-4.248 5.256,-5.544 z" stroke-width="0" stroke-linejoin="miter" stroke-miterlimit="2" fill="#42883c" stroke="#42883c" transform="translate(0 307.144) translate(327.013815 65.55199999999999) scale(1) translate(-344.528 37.872)"></path>
        <path id="path4273" style="font-style:normal;font-weight:300;font-size:72px;line-height:1;font-family:'Montserrat Light Alt1';font-variant-ligatures:none;text-align:center;text-anchor:middle" d="m 396.77525,-2.16 c 2.88,1.656 6.12,2.448 9.792,2.448 3.024,0 5.76,-0.576 8.208,-1.728 2.448,-1.152 4.464,-2.88 6.048,-5.184 l -2.664,-1.944 c -1.368,1.872 -3.024,3.312 -5.04,4.248 -2.016,0.936 -4.176,1.368 -6.552,1.368 -2.952,0 -5.616,-0.648 -7.92,-1.944 -2.304,-1.296 -4.176,-3.168 -5.472,-5.616 -1.296,-2.376 -1.944,-5.112 -1.944,-8.28 0,-3.096 0.648,-5.832 1.944,-8.28 1.296,-2.376 3.168,-4.248 5.472,-5.544 2.304,-1.296 4.968,-2.016 7.92,-2.016 2.376,0 4.536,0.504 6.552,1.44 2.016,0.936 3.672,2.304 5.04,4.176 l 2.664,-1.944 c -1.584,-2.232 -3.6,-3.96 -6.048,-5.112 -2.448,-1.152 -5.184,-1.8 -8.208,-1.8 -3.672,0 -6.912,0.864 -9.792,2.448 -2.88,1.584 -5.184,3.888 -6.768,6.768 -1.656,2.88 -2.448,6.192 -2.448,9.864 0,3.672 0.792,6.984 2.448,9.864 1.584,2.88 3.888,5.184 6.768,6.768 z" stroke-width="0" stroke-linejoin="miter" stroke-miterlimit="2" fill="#42883c" stroke="#42883c" transform="translate(0 307.144) translate(376.045065 65.55199999999999) scale(1) translate(-387.55925 37.872)"></path>
        <path id="path4275" style="font-style:normal;font-weight:300;font-size:72px;line-height:1;font-family:'Montserrat Light Alt1';font-variant-ligatures:none;text-align:center;text-anchor:middle" d="m 460.41762,-33.768 c -2.736,-2.736 -6.47999,-4.104 -11.15999,-4.104 -3.45601,0 -6.48001,0.72 -9,2.16 -2.59201,1.44 -4.464,3.384 -5.76001,5.976 v -23.688 h -3.6 V 0 h 3.6 v -20.016 c 0,-4.464 1.22401,-7.992 3.816,-10.656 2.52,-2.592 5.976,-3.96 10.44,-3.96 3.816,0 6.768,1.152 8.928,3.312 2.16001,2.232 3.24,5.472 3.24,9.648 V 0 h 3.60001 v -21.96 c 0,-5.112 -1.368,-9.072 -4.10401,-11.808 z" stroke-width="0" stroke-linejoin="miter" stroke-miterlimit="2" fill="#42883c" stroke="#42883c" transform="translate(0 307.144) translate(425.383435 50) scale(1) translate(-430.89762 53.424)"></path>
        <path id="path4277" style="font-style:normal;font-weight:300;font-size:72px;line-height:1;font-family:'Montserrat Light Alt1';font-variant-ligatures:none;text-align:center;text-anchor:middle" d="m 508.94337,-3.312 h -29.232 l 18.576,-18.504 c 3.168,-3.096 5.328,-5.832 6.48001,-8.208 1.15199,-2.304 1.72799,-4.824 1.72799,-7.416 0,-4.032 -1.51199,-7.272 -4.39199,-9.72 -2.952,-2.376 -6.91201,-3.6 -11.80801,-3.6 -3.744,0 -7.128,0.648 -10.08,1.8 -2.952,1.224 -5.39999,2.952 -7.272,5.112 l 2.592,2.304 c 1.728,-1.944 3.74401,-3.384 6.12,-4.392 2.37601,-0.936 5.18401,-1.44 8.35201,-1.44 4.10399,0 7.272,0.936 9.43199,2.736 2.16,1.872 3.312,4.392 3.312,7.56 0,2.16 -0.504,4.176 -1.512,6.192 -1.00799,2.016 -2.88,4.392 -5.616,7.128 l -21.312,21.168 V 0 h 34.632 z" stroke-width="0" stroke-linejoin="miter" stroke-miterlimit="2" fill="#42883c" stroke="#42883c" transform="translate(0 307.144) translate(473.429185 52.664) scale(1) translate(-472.94337 50.76)"></path>
        <path id="path4279" style="font-style:normal;font-weight:300;font-size:72px;line-height:1;font-family:'Montserrat Light Alt1';font-variant-ligatures:none;text-align:center;text-anchor:middle" d="M 529.58825,-47.088 V 0 h 3.672 v -47.088 h 18.144 V -50.4 h -39.96 v 3.312 z" stroke-width="0" stroke-linejoin="miter" stroke-miterlimit="2" fill="#42883c" stroke="#42883c" transform="translate(0 307.144) translate(517.930065 53.024) scale(1) translate(-511.44425 50.4)"></path>
        <path id="path4281" style="font-style:normal;font-weight:300;font-size:72px;line-height:1;font-family:'Montserrat Light Alt1';font-variant-ligatures:none;text-align:center;text-anchor:middle" d="m 577.52675,-4.248 c -2.088,0.864 -4.392,1.296 -6.768,1.296 -3.888,0 -7.128,-1.008 -9.864,-3.024 -2.736,-2.016 -4.608,-4.752 -5.472,-8.208 l 31.752,-6.192 c -0.216,-3.312 -1.008,-6.264 -2.592,-8.928 -1.584,-2.664 -3.672,-4.752 -6.264,-6.264 -2.592,-1.512 -5.544,-2.304 -8.784,-2.304 -3.528,0 -6.696,0.864 -9.432,2.448 -2.808,1.656 -4.968,3.888 -6.552,6.768 -1.584,2.88 -2.304,6.192 -2.304,9.864 0,3.744 0.792,6.984 2.448,9.864 1.656,2.88 3.96,5.184 6.912,6.768 2.952,1.656 6.264,2.448 10.08,2.448 2.88,0 5.544,-0.504 8.064,-1.512 2.376,-1.008 4.464,-2.52 6.12,-4.608 l -2.088,-2.376 c -1.44,1.8 -3.168,3.096 -5.256,3.96 z m -15.624,-28.44 c 2.232,-1.296 4.752,-2.016 7.632,-2.016 2.448,0 4.752,0.576 6.768,1.656 2.016,1.08 3.6,2.592 4.896,4.392 1.224,1.872 2.016,3.96 2.376,6.192 l -28.656,5.616 c -0.144,-0.936 -0.144,-1.656 -0.144,-2.232 0,-2.952 0.576,-5.688 1.872,-8.064 1.224,-2.376 2.952,-4.248 5.256,-5.544 z" stroke-width="0" stroke-linejoin="miter" stroke-miterlimit="2" fill="#42883c" stroke="#42883c" transform="translate(0 307.144) translate(563.732565 65.55199999999999) scale(1) translate(-551.24675 37.872)"></path>
        <path id="path4283" style="font-style:normal;font-weight:300;font-size:72px;line-height:1;font-family:'Montserrat Light Alt1';font-variant-ligatures:none;text-align:center;text-anchor:middle" d="m 620.657,-34.272 c -2.52,-2.376 -6.12,-3.6 -10.728,-3.6 -2.88,0 -5.688,0.504 -8.28,1.44 -2.664,0.936 -4.896,2.232 -6.768,3.888 l 1.8,2.592 c 1.584,-1.44 3.456,-2.592 5.76,-3.456 2.304,-0.864 4.68,-1.296 7.2,-1.296 3.6,0 6.408,0.936 8.28,2.736 1.872,1.872 2.88,4.536 2.88,7.992 v 3.024 h -12.888 c -4.896,0 -8.496,1.008 -10.728,2.952 -2.232,1.944 -3.312,4.464 -3.312,7.56 0,3.24 1.152,5.832 3.6,7.776 2.448,2.016 5.76,2.952 9.936,2.952 3.168,0 5.976,-0.576 8.28,-1.8 2.304,-1.224 4.032,-2.952 5.256,-5.184 V 0 h 3.456 v -23.832 c 0,-4.608 -1.296,-8.064 -3.744,-10.44 z m -4.824,29.448 c -2.16,1.44 -4.824,2.16 -7.92,2.16 -3.312,0 -5.904,-0.648 -7.704,-2.088 -1.872,-1.44 -2.736,-3.384 -2.736,-5.832 0,-2.304 0.792,-4.176 2.448,-5.544 1.656,-1.296 4.32,-2.016 8.064,-2.016 h 12.816 v 7.056 c -1.152,2.736 -2.808,4.824 -4.968,6.264 z" stroke-width="0" stroke-linejoin="miter" stroke-miterlimit="2" fill="#42883c" stroke="#42883c" transform="translate(0 307.144) translate(612.358815 65.55199999999999) scale(1) translate(-593.873 37.872)"></path>
        <path id="path4285" style="font-style:normal;font-weight:300;font-size:72px;line-height:1;font-family:'Montserrat Light Alt1';font-variant-ligatures:none;text-align:center;text-anchor:middle" d="m 644.5565,-2.16 c 2.88,1.656 6.12,2.448 9.792,2.448 3.024,0 5.76,-0.576 8.208,-1.728 2.448,-1.152 4.464,-2.88 6.048,-5.184 l -2.664,-1.944 c -1.368,1.872 -3.024,3.312 -5.04,4.248 -2.016,0.936 -4.176,1.368 -6.552,1.368 -2.952,0 -5.616,-0.648 -7.92,-1.944 -2.304,-1.296 -4.176,-3.168 -5.472,-5.616 -1.296,-2.376 -1.944,-5.112 -1.944,-8.28 0,-3.096 0.648,-5.832 1.944,-8.28 1.296,-2.376 3.168,-4.248 5.472,-5.544 2.304,-1.296 4.968,-2.016 7.92,-2.016 2.376,0 4.536,0.504 6.552,1.44 2.016,0.936 3.672,2.304 5.04,4.176 l 2.664,-1.944 c -1.584,-2.232 -3.6,-3.96 -6.048,-5.112 -2.448,-1.152 -5.184,-1.8 -8.208,-1.8 -3.672,0 -6.912,0.864 -9.792,2.448 -2.88,1.584 -5.184,3.888 -6.768,6.768 -1.656,2.88 -2.448,6.192 -2.448,9.864 0,3.672 0.792,6.984 2.448,9.864 1.584,2.88 3.888,5.184 6.768,6.768 z" stroke-width="0" stroke-linejoin="miter" stroke-miterlimit="2" fill="#42883c" stroke="#42883c" transform="translate(0 307.144) translate(659.826315 65.55199999999999) scale(1) translate(-635.3405 37.872)"></path>
        <path id="path4287" style="font-style:normal;font-weight:300;font-size:72px;line-height:1;font-family:'Montserrat Light Alt1';font-variant-ligatures:none;text-align:center;text-anchor:middle" d="m 708.19888,-33.768 c -2.736,-2.736 -6.48,-4.104 -11.16001,-4.104 -3.45599,0 -6.48,0.72 -9,2.16 -2.592,1.44 -4.46399,3.384 -5.76,5.976 v -23.688 h -3.6 V 0 h 3.6 v -20.016 c 0,-4.464 1.22401,-7.992 3.816,-10.656 2.52,-2.592 5.976,-3.96 10.44001,-3.96 3.81599,0 6.76799,1.152 8.928,3.312 2.16,2.232 3.23999,5.472 3.23999,9.648 V 0 h 3.6 v -21.96 c 0,-5.112 -1.36799,-9.072 -4.10399,-11.808 z" stroke-width="0" stroke-linejoin="miter" stroke-miterlimit="2" fill="#42883c" stroke="#42883c" transform="translate(0 307.144) translate(709.164685 50) scale(1) translate(-678.67887 53.424)"></path>
      </g>
      <image xlink:href="" id="icon" x="0" y="0" style="display: none;"></image>
    </g>
  </g>
</svg>